<?xml version="1.0" standalone="no"?><!DOCTYPE svg PUBLIC "-//W3C//DTD SVG 1.1//EN" "http://www.w3.org/Graphics/SVG/1.1/DTD/svg11.dtd"><svg class="icon" width="200px" height="200.00px" viewBox="0 0 1024 1024" version="1.1" xmlns="http://www.w3.org/2000/svg"><path d="M61.80468 113.297311L62.167267 129.988133 111.274495 130.352865 160.381744 130.593145 161.106918 134.583512C161.469441 136.64091 165.097242 156.356752 169.209893 178.370294 173.322545 200.261508 180.942857 241.385879 186.143206 269.68959 191.345699 297.991155 198.963845 338.752961 202.956378 360.403916 206.946744 382.054871 210.57669 401.648427 210.93711 403.946106 211.421961 406.246016 213.357074 416.284061 215.172047 426.322149 219.042274 446.76531 220.00983 451.843373 228.355274 497.685387 231.622654 515.586256 237.427993 546.912776 241.17808 567.233609 244.92602 587.554442 249.038672 609.808157 250.248654 616.823564 260.529211 674.881248 263.069315 685.766795 268.754514 695.444506 279.03507 712.860524 299.718469 727.496157 318.82932 730.883721 325.11951 731.971375 394.545404 732.2138 612.865721 731.971375L898.678879 731.728949 898.314168 715.038062 897.953748 698.467273 609.480303 697.862325 321.006858 697.257334 314.956948 693.992098C308.063912 690.364298 299.235763 681.534003 296.815799 675.728664 295.000826 671.133307 284.115279 615.493442 284.115279 610.413298 284.115279 608.478121 305.403668 608.357981 592.789416 608.1177L901.581549 607.752989 906.541617 581.746957C909.201861 567.476035 913.192228 547.035019 915.249626 536.389794 917.304879 525.746758 923.352644 494.177726 928.795418 466.236624 939.3184 411.688704 945.246024 381.207454 956.011432 325.930155 962.421762 293.515938 962.904468 289.888137 962.421762 277.912748 961.936911 265.576938 961.574346 264.366956 956.856703 254.811531 948.996111 238.965915 935.933024 227.597662 916.822174 220.219775L908.839296 217.07468 560.493194 216.709969C369.024265 216.589829 211.786672 215.984838 211.301821 215.502132 210.69683 214.897141 209.246568 208.486811 207.914301 201.229064 206.706464 193.971317 203.439083 176.555299 200.778839 162.644797 198.118595 148.614154 194.488649 129.383163 192.798107 119.707598 191.103274 110.032032 189.408462 100.959313 189.168161 99.386765L188.563127 96.726478 61.43997 96.726478 61.80468 113.297311ZM910.049278 254.20654C921.419676 260.134164 927.465296 268.601893 928.555138 279.607581 929.157983 285.53306 927.707721 294.363354 917.90987 344.075595 914.019585 363.819112 910.18937 383.574342 906.419332 403.341115 903.394377 419.30908 898.921305 442.408088 896.621481 454.748188 894.325947 467.083998 890.453576 486.314989 888.276037 497.685387 885.980504 508.933436 882.228273 528.891767 879.810454 541.832568 877.39049 554.775471 874.850386 567.476035 874.245395 569.893853L873.037558 574.491356 575.006585 574.491356C410.993908 574.491356 276.855386 574.006505 276.855386 573.523864 276.855386 573.038906 273.590151 554.895654 269.599785 533.366942 265.487133 511.715965 259.801934 480.752075 256.779124 464.423753 253.754169 448.095368 249.641518 425.839486 247.706405 414.831653 245.651151 403.825966 241.416214 380.482323 238.030839 362.82388 234.643318 345.163291 230.047961 320.731952 227.870423 308.393997 225.572744 296.058187 222.427649 278.517739 220.734961 269.447164 218.919988 260.254304 217.589866 252.271426 217.589866 251.546295 217.589866 250.698879 324.269948 250.456453 560.853614 250.578739L903.999368 250.941304 910.047132 254.20654Z" fill="#000000" /><path d="M377.85456 786.278972C361.646379 788.336371 349.308424 794.624416 336.610048 807.204796 322.45712 821.355579 316.409356 836.353778 316.409356 856.917036 316.531641 871.067819 319.0696 880.743384 325.844641 891.993643 345.923048 925.497702 388.135116 937.10838 422.001741 918.239955 438.452347 909.167235 452.48299 890.421095 456.595642 872.157661 459.376026 859.57728 458.408469 842.766254 454.295818 831.758421 442.322574 800.67218 410.99601 782.04618 377.85456 786.278972ZM394.182881 820.267882C423.091583 825.58837 434.33961 861.029688 413.656297 881.710941 405.675565 889.573679 397.930822 892.961199 387.530125 893.081339 373.499483 893.201479 362.25137 886.550869 354.510917 873.487783 351.608248 868.407575 351.245682 866.712742 351.245682 856.312045 351.245682 843.611525 352.333379 840.346289 359.953691 832.120986 365.274179 826.193361 371.324089 822.323135 378.217125 820.630448 385.352587 818.815475 386.320143 818.815475 394.182881 820.265737Z" fill="#000000" /><path d="M790.908955 788.093945C767.082607 794.384135 746.881914 814.702823 740.71401 838.773742 738.294046 848.086742 738.416245 864.294923 740.834107 873.728063 747.124426 898.161548 767.445173 918.602521 792.118937 925.375416 799.981675 927.432815 819.092526 927.190389 828.042961 924.892711 852.59444 918.48238 872.070002 899.008964 878.600472 874.455339 881.383001 863.932358 880.898151 844.096376 877.632915 834.418665 869.770178 811.317448 848.724214 792.206597 826.227988 787.488954 817.397693 785.673981 798.891833 785.916407 790.908955 788.093945ZM825.138146 822.685701C833.363449 826.193361 842.313883 836.476063 844.853987 845.061787 847.636517 854.619358 846.66896 866.472462 842.556309 873.607923 829.613363 895.621444 801.674363 899.854235 784.2562 882.438217 766.717896 864.899914 769.622711 838.531316 790.66653 824.985525 800.586666 818.575194 813.407327 817.727778 825.138146 822.685701Z" fill="#000000" /></svg>