<?xml version="1.0" standalone="no"?><!DOCTYPE svg PUBLIC "-//W3C//DTD SVG 1.1//EN" "http://www.w3.org/Graphics/SVG/1.1/DTD/svg11.dtd"><svg class="icon" width="200px" height="200.00px" viewBox="0 0 1024 1024" version="1.1" xmlns="http://www.w3.org/2000/svg"><path d="M386.013155 140.771131C292.860584 150.683283 208.903553 189.138894 148.830015 249.212411 109.417518 288.860933 82.189196 334.960921 69.648807 384.047421 59.616572 422.6232 58.779812 464.181201 67.138656 502.520978 77.887503 551.723334 101.535014 595.4354 140.230984 637.23584 152.530994 650.61078 153.009458 651.685624 155.635507 675.333178 156.950688 687.871379 156.472246 745.554828 154.921062 758.097321 154.562766 760.723391 153.247585 774.100476 151.93455 787.953859 150.621514 801.687094 149.188332 815.422474 148.709889 818.406841L147.993341 823.663274 155.637653 818.168692C169.491078 808.374563 206.035043 784.250755 220.008572 775.771807 258.344058 752.364591 299.668201 732.420183 309.460185 732.420183 311.369664 732.420183 323.553861 734.567854 336.570505 737.196028 376.697469 745.198678 386.253449 746.035416 431.396551 746.035416 466.62761 746.153332 473.673289 745.795037 490.036886 743.407114 538.883092 736.359289 576.023544 725.254271 616.749098 705.668158 669.894851 679.991021 717.069769 640.938944 747.642855 597.226878 770.691776 564.143534 785.502044 529.032709 792.309661 491.175665 795.414174 473.857393 796.609208 437.073027 794.577436 419.874837 784.186863 331.139816 731.639699 253.153663 645.771107 199.529467 593.101587 166.568416 537.688058 147.816896 472.001958 140.650962 453.014436 138.621357 405.599267 138.621357 386.013155 140.771131ZM466.62761 180.183649C506.278255 184.36305 533.746806 190.932561 568.73963 204.663607 609.823479 220.668909 647.442374 244.554568 677.419123 273.456366 729.13163 323.257312 756.362097 383.090535 756.24195 446.50886 756.121803 491.77211 744.059899 530.824187 718.262614 569.518054 657.35459 660.52291 533.508658 714.863698 406.315858 706.264603 377.296058 704.355123 362.605938 702.203204 337.048947 696.232411 324.626602 693.365917 318.179426 692.41122 308.981742 692.41122 297.876723 692.41122 296.203247 692.769516 285.694672 697.066918 261.927014 706.622963 206.633633 735.524696 198.392833 742.690673 197.435969 743.645349 196.24306 744.36194 196.002723 744.36194 195.64447 744.36194 195.64447 732.420183 195.884764 717.730062 196.601355 677.721143 193.138567 645.714831 186.687079 632.099512 185.253897 629.113043 180.598199 622.90408 176.178505 618.36411 142.260568 582.536758 123.629196 553.276664 111.925587 517.569437 90.309806 451.643 100.580274 380.940762 140.707217 320.989537 152.054675 304.029496 161.132256 293.162626 177.49154 276.801174 231.235883 223.176978 307.786708 188.780599 392.224327 180.183649 412.048588 178.151856 447.637856 178.151856 466.629669 180.183649Z" fill="#000000" /><path d="M241.268161 410.441064C229.444405 413.66581 221.80005 423.698087 221.920197 436.236289 222.158346 450.568113 234.100103 462.271722 248.672222 462.391869 253.68836 462.512016 263.838639 457.972174 267.421595 454.030923 273.512621 447.4636 275.660249 433.490071 272.077293 425.13127 266.943153 413.187281 254.046656 407.096342 241.268161 410.441064Z" fill="#000000" /><path d="M420.647683 409.84256C399.270136 416.412028 393.29915 440.894175 409.540519 455.464105 419.216646 464.183411 434.024768 464.303494 443.578603 455.584252 449.669628 450.091816 451.581253 446.268566 452.417991 437.789618 453.728924 425.249186 445.966525 414.382401 433.308177 410.559151 426.858855 408.649671 425.185379 408.529524 420.649871 409.84256Z" fill="#000000" /><path d="M589.042333 409.84256C580.084943 412.588778 574.948657 417.128619 571.007405 425.965863 562.41037 445.43393 582.713159 467.528155 603.015863 460.838539 609.583099 458.688766 617.22754 451.881149 619.615355 446.150564 621.765236 441.134426 621.765236 430.027261 619.495316 424.89104 615.075535 414.142107 599.791202 406.617899 589.042333 409.84256Z" fill="#000000" /><path d="M826.465746 289.937965L814.880139 304.746087 827.06219 314.778364C892.628143 368.878857 925.94749 437.431322 923.083271 512.671193 921.770235 546.589194 914.842472 574.05781 899.555907 605.227383 886.298969 632.457786 864.921379 661.71788 845.335267 679.27443 835.423137 688.111673 831.958182 693.842257 827.302484 708.534523 821.091312 728.478931 819.179687 744.482087 819.061685 776.25025 818.941538 792.253406 818.583242 805.27005 818.224947 805.27005 817.746504 805.27005 816.19532 804.31531 814.641991 803.002275 801.625347 792.84985 757.078688 769.560635 740.715091 764.306348 719.099417 757.260582 712.652177 757.380729 676.106024 765.261087 654.129844 770.039078 630.244184 773.622034 608.628445 775.533659 592.387141 776.966841 560.260682 775.769662 535.538349 772.905442 529.447259 772.188851 524.192972 771.710409 523.952678 771.950703 523.356233 772.667294 518.219905 810.166042 518.818537 810.644484 519.176833 811.122927 538.404649 813.390702 552.616327 814.585736 557.87276 815.064179 574.830698 815.422474 590.235222 815.422474 624.86975 815.302327 638.364836 813.748998 684.584907 804.077161 711.93344 798.462433 717.428021 798.224284 729.728074 802.403685 755.167063 810.882633 798.280539 836.323767 844.976971 870.239559 854.052363 876.927028 862.533457 883.018054 863.846492 883.972794 865.996266 885.405976 866.116413 885.287975 865.519969 882.181316 864.442936 875.852142 860.263536 832.500517 858.830353 812.435962 856.322284 777.801434 858.710206 740.062392 864.563083 722.267759 866.951006 714.74355 871.250553 707.935934 874.953656 705.548011 878.894908 702.919838 898.719169 680.349316 907.556412 668.405414 922.008384 648.819302 938.369836 618.604468 946.490488 596.868582 968.346521 537.870017 967.868078 468.004452 945.297599 410.679298 928.337558 367.565822 901.943829 329.82678 865.758117 296.745582 855.367544 287.309749 839.960833 275.009696 838.647797 275.127697 838.289501 275.127697 832.79492 281.815167 826.465746 289.937965Z" fill="#000000" /></svg>