<?xml version="1.0" standalone="no"?><!DOCTYPE svg PUBLIC "-//W3C//DTD SVG 1.1//EN" "http://www.w3.org/Graphics/SVG/1.1/DTD/svg11.dtd"><svg class="icon" width="200px" height="200.00px" viewBox="0 0 1024 1024" version="1.1" xmlns="http://www.w3.org/2000/svg"><path d="M266.268742 62.319682C237.072311 65.718208 203.21578 77.926298 179.55485 93.783942 140.289406 120.212612 112.223672 166.528281 108.069896 211.711088 107.441276 217.246566 107.061516 364.876488 107.061516 539.688184 107.061516 841.36103 107.190249 857.973902 109.329346 868.042895 118.516524 910.455816 147.210899 942.171104 188.868593 956.140677 195.161402 958.155334 204.601796 960.421018 210.012833 961.176246 216.80774 962.184647 327.937833 962.560116 568.445788 962.560116L916.938484 962.560116 916.938484 929.840718 566.684348 929.463104C172.759921 929.08549 210.390447 930.091746 187.358137 919.143084 177.164703 914.358543 173.766134 911.968418 165.0832 903.158854 148.594769 886.419396 141.673275 870.310724 141.673275 848.286815 141.673275 830.036901 147.337486 815.94074 159.670017 802.977422 169.865596 792.279788 186.351881 783.219197 203.593394 778.561242L214.040001 775.666917 559.260756 775.415889 904.354925 775.038275 904.354925 61.440013 587.577517 61.691019C413.267877 61.691019 268.661012 62.068654 266.268742 62.319682ZM871.002595 418.238071L871.002595 741.685945 538.7452 742.314586 206.48772 742.943228 195.161402 746.341818C174.772433 752.383579 158.159582 760.184741 146.078079 769.498506 142.932704 771.76419 140.289406 773.274646 140.162819 772.770445 139.911792 772.26839 140.036233 645.658267 140.413847 491.233352L141.169075 210.5761 143.812373 201.137895C150.105225 178.987399 156.271491 166.277254 168.732754 150.166437 181.065285 134.310939 194.532803 122.982561 213.411359 112.662477 228.387188 104.608162 251.670526 97.557937 269.41624 95.92304 274.325223 95.420985 278.476832 94.916741 278.727859 94.665757 278.981032 94.412584 412.388208 94.288143 575.1184 94.53917L871.002595 94.790198 871.002595 418.238071Z" fill="#000000" /><path d="M473.302071 248.963999L440.578382 305.597522 378.029622 305.597522C343.544449 305.597522 315.352129 305.724108 315.352129 305.975136 315.352129 306.35275 324.414866 322.33698 358.520279 381.48936 367.960629 397.849123 375.763938 411.567562 375.763938 411.945219 375.763938 412.196247 362.423005 435.606171 346.061161 463.79641 329.701462 491.988666 316.109503 515.649618 315.85633 516.404846 315.478716 517.284515 336.496369 517.537688 377.652008 517.284515L439.823154 517.03338 441.584638 519.801227C444.352377 524.332595 473.302071 574.171275 490.416998 604.125015 498.975534 619.100844 506.274642 631.437752 506.652342 631.437752 507.02987 631.562107 511.812223 623.507772 517.476476 613.565366 523.140687 603.747465 532.074691 588.016344 537.487874 578.702579 542.898912 569.390961 552.59029 552.398243 559.13417 540.945467 565.804636 529.492605 571.719874 519.425844 572.350661 518.670423 573.354771 517.411102 588.081825 517.03338 635.77909 516.78246L697.827984 516.404846 667.62105 464.300546C651.134679 435.606171 637.540574 411.945219 637.540574 411.820778 637.540574 411.189991 691.281831 317.427998 694.93147 311.639346 696.568513 308.996048 697.952383 306.603777 697.952383 306.226163 697.952383 305.848549 669.760169 305.470935 635.401562 305.346494L572.726129 304.96888 569.203162 299.30467C567.188505 296.159317 561.02224 285.461683 555.233631 275.39269 549.569378 265.323698 539.249358 247.453543 532.452391 235.747508 525.657355 223.917032 517.225492 209.443258 513.826922 203.276992 510.428396 197.237314 507.283043 192.328331 506.778842 192.328331 506.401228 192.328331 491.29877 217.877353 473.302071 248.963999ZM509.797609 263.060159C519.237917 279.168831 533.08305 303.709452 533.08305 304.591266 533.08305 305.093321 520.87496 305.599667 506.023614 305.599667L479.090723 305.599667 487.649259 290.746134C492.113815 283.019099 496.518747 275.257779 500.86369 267.462796 503.380359 262.806986 505.896942 259.030846 506.399018 259.030846 506.903198 259.030846 508.415885 260.918916 509.799798 263.058014ZM420.566984 340.460308C419.560729 342.850433 406.599556 365.50513 400.935346 374.692308L397.410233 380.227786 385.328729 359.840919C378.656118 348.64123 373.247226 339.20088 373.247226 338.823266 373.247226 338.572238 384.069301 338.319065 397.283646 338.319065 419.687315 338.319065 421.322212 338.447797 420.566984 340.460308ZM558.252419 348.13703C565.239287 360.355955 572.245143 372.564152 579.269923 384.7613L594.625598 411.694256 592.233327 416.223329C590.849457 418.742272 581.411252 435.228557 571.091189 452.847684L552.463639 484.940543 506.652342 484.816145C469.399344 484.687413 460.589823 484.311945 459.707966 482.928118 454.043755 473.236697 421.699826 417.356214 420.315957 414.712915 418.554473 411.316578 418.805501 410.685791 429.627575 392.060343 435.796029 381.613801 445.236337 365.127516 450.647332 355.562724L460.589823 338.319065 552.59029 338.319065 558.254501 348.13703ZM640.059431 339.074293C640.059431 340.207135 616.900534 379.725731 616.145306 379.852318 615.516665 379.852318 592.233327 340.207135 592.233327 338.949852 592.233327 338.572238 603.057547 338.319065 616.145306 338.319065 629.361797 338.319065 640.059431 338.696679 640.059431 339.074293ZM409.618323 463.423023C415.911175 474.371684 420.946744 483.558776 420.818012 483.685449 420.18937 484.31409 373.247226 485.069318 373.247226 484.440677 373.247226 483.181248 397.283646 442.52981 397.78789 443.031865 397.914519 443.285038 403.325471 452.472302 409.618323 463.423023ZM628.479897 463.547528C634.017607 473.238842 638.800003 481.921884 639.051095 482.803634 639.304203 484.187504 634.899357 484.565161 615.894279 484.818291 602.80652 484.942732 592.233327 484.818291 592.233327 484.440677 592.233327 483.80989 595.254303 478.525439 610.734269 451.339438 614.259382 445.046608 615.894279 443.285038 616.900534 444.41788 617.655762 445.297549 622.815772 453.858231 628.479897 463.547528ZM533.08305 518.295062C533.08305 518.923768 527.796496 528.615082 521.377058 539.943503 514.833178 551.267633 509.044527 561.463211 508.289384 562.847167 507.156521 564.861738 505.772587 562.973668 498.220306 550.261377 487.7737 532.64225 480.223608 519.05029 480.223608 517.917384 480.223608 517.413247 492.178482 517.037843 506.652342 517.037843 522.636486 517.037843 533.08305 517.539834 533.08305 518.295062Z" fill="#000000" /></svg>