<?xml version="1.0" standalone="no"?><!DOCTYPE svg PUBLIC "-//W3C//DTD SVG 1.1//EN" "http://www.w3.org/Graphics/SVG/1.1/DTD/svg11.dtd"><svg class="icon" width="200px" height="200.00px" viewBox="0 0 1024 1024" version="1.1" xmlns="http://www.w3.org/2000/svg"><path d="M490.594991 156.581178L490.951132 251.724489 278.18905 251.724489C106.222279 251.724489 65.667256 251.960486 66.143541 253.269197 66.379538 254.101624 72.208666 262.902169 78.986072 272.893426 89.333493 288.115237 91.712729 290.970801 93.733744 290.374373 95.042455 290.018231 103.843 287.997238 113.357972 285.856101L130.600798 282.050112 490.356849 282.050112 490.356849 365.29915 490.476993 448.548252 323.858773 448.906517C232.285475 449.024473 157.360698 449.380614 157.360698 449.7389 157.360698 450.095041 162.593397 458.299157 168.896664 467.932128 175.199888 477.567245 180.432629 485.535364 180.550628 485.653363 180.670772 485.773507 188.162606 484.226739 197.199191 482.20566L213.849814 478.399671 551.368526 478.163674C737.0124 478.04353 889.12109 477.685244 889.359233 477.449332 889.59523 477.211104 873.184852 460.322296 852.848341 439.867872L815.743166 402.880653 798.618361 425.952541 781.491411 449.144617 521.2789 449.144617 521.2789 281.455829 739.51178 281.219832 957.860599 280.861545 920.517282 243.75637 883.173964 206.533197 866.4053 229.126698 849.518637 251.724489 521.2789 251.724489 521.2789 136.364833 524.60869 134.223696C533.052966 128.988873 566.470257 105.08664 566.470257 104.372212 566.470257 103.898073 563.616774 101.995078 560.287156 100.092084 552.913234 96.165951 531.029784 83.915558 507.83994 70.716885 498.801253 65.602185 491.19142 61.440055 490.833134 61.440055 490.597222 61.440055 490.476993 104.254192 490.597222 156.581178Z" fill="#000000" /><path d="M253.692555 762.042399C253.692555 935.199882 253.928552 963.030373 255.357407 962.554088 256.307831 962.195801 262.967239 958.033671 270.223077 953.395256L283.423894 944.834999 283.423894 890.362585 718.699028 890.362585 718.699028 952.324688 734.158938 944.236424 749.618934 936.148161 749.618934 656.435857 758.895764 649.894448C777.925709 636.337425 789.697672 628.011084 793.979946 625.157664 796.35708 623.492748 798.378073 621.82796 798.378073 621.471819 798.378073 621.115678 788.627104 613.383556 776.734997 604.46497 755.327918 588.528839 742.721383 579.013802 728.449997 567.715979L721.196306 562.127139 720.481878 567.121695C720.125737 569.975028 719.411353 578.895803 718.937256 587.102065L718.102599 601.967692 509.030653 602.323876 299.954416 602.562061 293.174864 596.378959C289.489019 592.929047 282.115183 586.149495 276.882485 581.154939 264.157952 569.262832 254.881122 560.938572 254.286838 560.938572 253.928552 560.938572 253.692555 651.441301 253.692555 762.044544ZM718.699028 746.462302L718.699028 860.633391 283.421749 860.633391 283.421749 632.291212 718.696882 632.291212 718.696882 746.462302Z" fill="#000000" /></svg>