<?xml version="1.0" standalone="no"?><!DOCTYPE svg PUBLIC "-//W3C//DTD SVG 1.1//EN" "http://www.w3.org/Graphics/SVG/1.1/DTD/svg11.dtd"><svg class="icon" width="200px" height="200.00px" viewBox="0 0 1024 1024" version="1.1" xmlns="http://www.w3.org/2000/svg"><path d="M467.878018 64.42826C438.056491 67.903852 416.737464 71.853584 394.221203 78.08176 315.655649 99.879303 243.195982 142.873669 187.745263 200.843119 123.429639 268.031471 82.348994 349.83233 67.976775 439.657087 64.743616 459.416474 64.385329 462.291282 62.349319 489.360205 60.075166 519.181647 62.109031 556.308269 67.976775 590.922596 86.541159 701.706077 148.340197 802.309419 239.722535 870.456777 262.717226 887.583724 284.514769 900.996937 311.463484 914.410149 377.094255 947.346752 460.212406 964.473699 533.98722 960.16139 547.042146 959.442672 559.020154 958.603809 560.697792 958.365667 562.371226 958.125379 566.923823 957.526805 570.8757 957.046229 587.045787 955.37065 624.052265 947.466895 645.13109 941.23872 761.305987 906.744537 862.147515 822.309093 915.922654 714.878959 940.11664 666.613277 953.767994 621.222468 960.356602 567.209186 962.991187 545.890073 963.351619 487.562251 960.957322 467.20223 949.099544 364.084404 906.581463 273.180497 836.157806 200.244545 761.0657 122.635852 658.546512 73.411121 552.912036 64.190117 536.623994 62.752681 480.572513 62.870679 467.878018 64.42826ZM545.12628 99.521017C602.735298 105.030474 648.964969 117.842967 696.033502 141.438378 739.027869 162.995634 772.204759 186.949331 806.336364 220.962938 826.936759 241.683477 833.164935 248.868513 849.094734 270.666056 887.776791 323.722478 913.528357 386.360378 923.588266 452.111293 929.936586 493.312082 929.576154 545.171355 922.869548 582.776408 903.468448 690.446831 848.255872 779.673013 760.467125 844.587212 726.573662 869.617914 682.978576 892.014032 642.854792 904.830815 603.333872 917.52531 565.486386 923.871484 522.968305 924.950634 479.733651 926.027639 448.71506 922.554192 406.797698 911.895708 289.425653 882.192265 189.779129 801.350413 136.842851 693.083561 129.777959 678.591198 118.520901 649.127979 112.889154 630.683803 98.158649 581.819547 93.129767 526.248685 98.51908 473.788778 105.105586 410.193932 123.908069 353.543919 156.724528 299.172351 210.381669 210.064167 297.807838 143.113957 398.533512 114.011212 422.367066 107.184483 460.810937 100.477877 487.040976 98.56201 500.454146 97.725294 530.754061 98.203724 545.12628 99.521017Z" fill="#000000" /><path d="M483.68763 262.522014C449.313635 268.75019 415.898602 290.069302 396.617645 318.092876 386.675734 332.585238 378.651836 351.748197 374.938101 369.23343 372.543804 380.492634 371.704941 405.881558 373.382666 417.499112 375.897107 436.54184 383.442575 455.945086 395.538495 474.627555 402.485475 485.288248 421.648347 504.809428 431.109725 510.91746 434.58313 513.073615 436.977362 515.349913 436.498996 515.7082 435.898277 516.18663 432.905405 517.503923 429.552102 518.703216 426.318943 519.900408 417.69647 523.732098 410.629432 527.445833 363.921331 551.039035 330.26601 585.29293 307.391462 632.479526 291.701951 664.817554 284.993199 693.321703 283.197477 735.717495L282.478759 754.043737 318.650666 754.043737 317.929802 747.695481C316.972941 738.354269 319.607526 705.898199 322.362255 693.561991 333.379025 643.738686 362.601893 600.263787 403.802596 572.117924 423.085784 558.824856 449.912273 547.445508 472.668672 542.774913 531.833211 530.558849 594.709254 550.082153 639.025204 594.275899 678.307916 633.438532 698.427799 683.14165 698.427799 740.868667L698.427799 754.041591 733.518411 754.041591 732.681694 735.118921C730.643495 686.374809 720.465673 650.565479 697.589001 612.121522 682.618144 586.968573 660.580313 563.61345 633.03517 543.733983 624.052265 537.265455 597.464026 523.01338 582.49319 516.78735L578.541312 515.109625 586.086781 509.720312C614.711074 489.718491 635.910043 455.704884 642.138262 420.015698 644.054 409.23484 643.693654 383.607794 641.419501 371.868015 630.879015 316.056865 586.805499 271.983349 532.071311 262.40187 519.617147 260.127717 496.14188 260.245715 483.68763 262.522014ZM530.754061 297.732769C560.575503 304.919951 584.529136 324.200908 598.663362 352.226627 610.879341 376.420612 612.196633 410.073788 601.896436 435.464922 589.918514 465.16622 565.966962 486.72562 534.946226 496.066811 520.456009 500.37912 498.17789 500.617263 483.447385 496.665471 454.224518 488.879629 430.27082 469.118097 417.09575 442.051341 409.552427 426.722219 406.915697 414.984671 406.915697 397.139005 406.915697 369.473718 416.737464 345.399877 436.138564 325.638344 449.674066 311.8647 468.716881 301.206216 487.040976 297.374483 499.495183 294.619754 518.537997 294.860042 530.754061 297.732769Z" fill="#000000" /></svg>