<?xml version="1.0" standalone="no"?><!DOCTYPE svg PUBLIC "-//W3C//DTD SVG 1.1//EN" "http://www.w3.org/Graphics/SVG/1.1/DTD/svg11.dtd"><svg class="icon" width="200px" height="200.00px" viewBox="0 0 1024 1024" version="1.1" xmlns="http://www.w3.org/2000/svg"><path d="M487.847632 61.692727C485.916595 61.933025 479.396409 62.778362 473.361047 63.50355 428.208409 69.176318 375.452159 92.476762 338.993252 123.020371 310.743124 146.563259 284.423969 180.125729 268.971898 212.23778 250.138479 251.352846 242.410298 289.382277 243.740524 335.620487 244.341271 358.558295 246.031944 370.270716 251.829153 393.328673 268.729454 460.211124 315.450406 520.573325 377.625575 555.70634 421.690433 580.695227 469.496956 592.888245 517.427985 591.560165 554.850232 590.47453 587.809788 582.988793 621.61468 568.019465 628.737823 564.880562 634.53074 562.466846 634.53074 562.707145 634.53074 563.189888 598.674726 626.693137 586.239263 648.302865 582.377318 654.943265 567.528075 681.260275 553.039495 706.854243 538.552739 732.450356 521.530165 762.509162 515.012124 773.858989 497.626935 804.160239 459.719799 870.439797 454.647778 879.493913 452.234062 883.840747 442.817267 900.380599 433.643088 916.195264 424.589015 932.130078 417.585979 945.410878 418.066576 945.893621 419.516951 947.34185 448.85486 962.916216 449.215309 962.553623 449.457753 962.313324 458.149275 947.221701 468.531406 928.991175 479.036025 910.762794 490.383707 890.84374 493.885139 884.926382 500.523394 873.69885 502.214067 870.559947 508.974617 858.364783 511.270328 854.382688 517.427985 843.51775 522.858352 834.22119 529.039309 823.59419 535.156287 812.929858 541.208984 802.229266 545.918412 793.898193 561.973375 765.648065 576.8247 739.451204 591.793942 713.254387 610.990147 679.569601 619.439117 664.600273 627.892486 649.630945 639.240168 629.589596 644.792829 619.930528 650.225256 610.27558 659.762114 593.493283 665.919771 582.506093 672.077364 571.520962 678.958127 559.570387 681.011458 555.946596 683.167647 552.338895 685.300342 548.717142 687.40935 545.081657 702.861421 517.194209 708.778779 507.897563 716.987558 497.998025 756.465218 450.431821 778.074946 394.776902 780.248362 335.017594 781.696592 291.555694 773.125219 251.112548 754.171651 212.23778 720.126461 142.578977 656.623211 89.942897 582.257169 70.021655 559.076981 63.743848 545.073075 61.933025 517.425925 61.572577 503.179554 61.330133 489.898754 61.450282 487.847632 61.692727ZM540.363648 98.996991C611.592932 108.776273 670.386754 145.717923 708.536334 204.631894 735.698681 246.645565 748.859332 303.025671 742.581525 351.315002 734.613045 413.490172 705.277346 466.006187 656.865656 504.638511 622.700315 531.923152 582.617617 548.342855 537.344958 553.653029 518.63377 555.826446 485.191472 554.498366 466.720647 550.634276 365.672856 530.110184 292.392449 451.0348 280.802323 350.107072 277.541125 321.496496 281.64766 282.741877 290.701775 255.339232 294.080977 245.07504 303.617836 223.585462 308.932301 214.048603 338.268065 161.895181 393.44024 119.88151 451.991618 105.154627 463.341445 102.258189 482.295013 98.754504 490.866386 98.031484 504.629971 96.823553 528.048334 97.306296 540.363648 98.996991Z" fill="#000000" /></svg>