<?xml version="1.0" standalone="no"?><!DOCTYPE svg PUBLIC "-//W3C//DTD SVG 1.1//EN" "http://www.w3.org/Graphics/SVG/1.1/DTD/svg11.dtd"><svg class="icon" width="200px" height="200.00px" viewBox="0 0 1024 1024" version="1.1" xmlns="http://www.w3.org/2000/svg"><path d="M118.762443 512.000064L118.762443 962.560114 905.237536 962.560114 905.237536 61.440057 118.762443 61.440057 118.762443 512.000064ZM268.168857 150.319647L268.537883 209.614931 748.066523 209.614931 748.435485 150.319647 748.682282 91.026509 875.653186 91.026509 875.653186 932.973619 148.348916 932.973619 148.348916 91.026509 267.922124 91.026509 268.168857 150.319647ZM718.111001 92.504761C718.235441 93.369399 718.357734 113.708774 718.357734 137.500306L718.482174 181.01541 297.506473 181.01541 297.506473 91.026509 507.686444 91.026509C674.84263 91.026509 717.864333 91.395536 718.111001 92.506928Z" fill="#000000" /><path d="M293.069572 366.292477C292.822839 367.15497 292.700545 373.690174 292.822839 380.838992L293.191865 393.658376 511.01412 394.029548 728.958582 394.276281 728.958582 364.689786 511.383146 364.689786C332.392362 364.689786 293.563037 364.936519 293.069572 366.292477Z" fill="#000000" /><path d="M292.822839 501.152398L293.191865 515.698913 511.01412 516.068025 728.958582 516.314672 728.958582 486.730258 292.453812 486.730258 292.822839 501.152398Z" fill="#000000" /><path d="M292.822839 623.190789L293.191865 637.737304 511.01412 638.108476 728.958582 638.355209 728.958582 608.766568 292.453812 608.766568 292.822839 623.188644Z" fill="#000000" /><path d="M292.822839 746.46499L293.191865 761.011505 511.01412 761.380531 728.958582 761.627264 728.958582 732.040769 292.453812 732.040769 292.822839 746.462845Z" fill="#000000" /></svg>