<?xml version="1.0" standalone="no"?><!DOCTYPE svg PUBLIC "-//W3C//DTD SVG 1.1//EN" "http://www.w3.org/Graphics/SVG/1.1/DTD/svg11.dtd"><svg class="icon" width="200px" height="200.00px" viewBox="0 0 1024 1024" version="1.1" xmlns="http://www.w3.org/2000/svg"><path d="M265.149061 238.964386C262.402834 239.994222 257.714938 243.081582 254.743435 246.055231 249.710116 250.972693 216.772555 295.002437 213.571484 301.063446 212.19837 303.693817 212.427937 304.152952 219.402925 310.555094 223.406409 314.215299 227.980594 318.102927 229.581129 319.36233L232.554778 321.419854 241.589436 308.954558C257.714938 286.881758 269.723245 270.872112 272.239905 268.125885 274.986132 265.152236 279.101182 265.152236 279.674028 268.125885 279.901449 269.15572 274.86813 285.624501 268.581845 304.723652 258.058217 336.745089 249.937537 365.333742 246.736467 381.345533 246.04991 385.005739 245.020075 387.979388 244.563085 387.979388 243.992385 387.979388 241.705293 387.17912 239.531911 386.262996 237.128963 385.349017 231.984078 384.546604 227.637315 384.546604 213.455627 384.546604 199.960496 393.583407 195.158889 406.162372 193.785776 409.938477 191.955673 420.344103 190.46887 433.038967 186.694932 466.890506 188.525034 512.063796 195.388414 552.662966 198.47586 570.388853 198.932806 590.974829 196.532003 600.580273L194.929322 606.870849 198.705384 609.958209C203.277423 613.845773 210.024989 615.218951 214.371751 613.047715 219.402925 610.644809 223.52012 601.723819 224.893234 590.288358 226.266347 579.423597 226.266347 578.966608 221.576306 544.655869 215.858576 503.372417 214.601319 473.294794 217.002122 438.870408 218.375235 420.230392 219.518782 415.999486 223.635977 413.826104 227.866883 411.652723 233.927892 413.710141 236.558262 418.286578 237.701809 420.114535 241.932715 435.325994 246.04991 452.022261 250.280816 468.720545 255.657414 490.104707 258.058217 499.598564 265.719761 528.875855 266.635885 535.393896 266.635885 564.098363 266.635885 592.805061 265.378628 601.723819 257.487516 626.081566 252.338341 641.865935 249.710116 647.697377 239.529766 666.223682 226.60748 689.326382 216.201854 709.339447 207.283053 728.209031 202.820434 737.586967 198.819116 745.935068 198.35996 746.737417 197.78926 747.65146 181.550047 738.387235 148.041786 718.260308 120.937812 701.905325 98.292166 688.182771 97.837322 687.725846 97.264476 687.268793 102.525217 678.575267 109.272783 668.51292 148.26925 610.415199 155.130484 599.20716 160.507082 583.311289 166.224834 566.385455 167.025102 550.259953 163.824052 518.581794 162.107617 501.885592 161.993928 496.624851 163.021553 483.70042 165.538256 453.738653 172.17211 428.692204 184.523696 402.961429 190.46887 390.380191 203.620701 367.279701 210.368267 357.331064 212.312081 354.471126 213.341916 351.954467 212.771216 351.040488 211.168535 348.410117 194.929322 333.657729 193.672065 333.657729 192.071529 333.657729 176.173449 359.045311 166.797637 376.42807 140.607642 425.261566 130.772737 472.264958 136.374611 522.242 139.807374 553.233645 137.863581 569.359104 128.485645 588.001266 126.76921 591.316048 110.987029 615.678085 93.374703 641.981792 65.470461 683.722298 61.469122 690.356238 61.469122 694.130069 61.469122 699.274954 59.179863 697.560708 95.204849 719.174373 109.043216 727.408763 140.150631 746.164636 164.280999 760.689603 188.525034 775.214569 208.881443 786.993309 209.567999 786.65003 210.254556 786.420463 214.601319 778.072362 219.289214 768.12158 231.297521 742.047441 244.449374 715.973388 260.345309 686.466294 275.440976 658.446281 281.731552 643.580182 286.878583 624.139898 293.053303 600.466519 293.739859 593.03244 294.769694 544.655869 295.913241 493.651202 298.314044 466.660939 305.06161 426.862101 310.322351 396.213778 315.239814 376.200648 334.454821 307.354023 336.169068 301.406725 337.426325 293.629324 337.540036 289.055139 337.655892 282.307573 337.196757 280.250049 334.566387 275.903286 329.078223 266.527495 320.843833 261.035041 310.092783 259.207084 306.091445 258.634238 305.291177 257.947681 304.031774 254.517043 299.000601 240.794489 280.701717 233.474078 265.149061 238.962241ZM308.949237 288.025304C311.122618 288.825572 311.465897 287.454604 302.54495 318.791629 288.479118 368.766526 282.074831 396.900378 276.3571 433.725588L273.726729 450.192158 271.667059 441.159646C270.523513 435.783048 269.607389 427.20538 269.607389 420.344103 269.607389 403.6479 272.467327 387.979388 281.731552 354.814405 284.018645 346.466303 297.857054 304.266663 303.345218 288.711861 303.918063 287.225036 306.091445 286.881758 308.949237 288.025304Z" fill="#000000" /><path d="M728.205856 238.048262C719.628187 240.678633 711.27794 248.342323 708.763426 255.776445 707.963158 258.406816 706.703756 259.891495 705.446434 259.891495 699.501346 259.891495 691.037303 263.781268 686.006129 268.812442 676.285 278.647368 675.484732 288.711861 682.459677 313.75831 702.816128 386.492563 708.192726 409.936331 713.796745 451.451561 718.484684 485.873801 719.971465 510.233693 719.741898 546.029047 719.39862 587.42842 721.228722 602.180809 730.606659 631.001174 735.639892 646.783398 741.128141 657.875581 754.507416 679.605103 767.315991 700.42056 784.587185 732.326226 799.112151 762.290138 805.743861 775.89898 811.461591 786.993309 812.034437 786.993309 812.948416 787.10702 837.422019 772.354631 923.194414 719.974576 933.117627 713.969629 943.029769 707.946595 952.930904 701.905325 957.962078 698.818051 962.306695 696.187594 962.536263 695.960172 962.993252 695.616894 956.818532 686.238957 947.668018 673.314526 938.163798 659.599911 928.672065 645.876671 919.193076 632.144721 896.433719 598.979738 887.85605 585.598317 885.111969 578.393762 882.365742 571.41871 880.308217 558.610135 880.308217 547.85915L880.308217 536.766967 868.072488 525.672639 855.720902 514.580456 854.804778 519.61163C854.234078 522.357857 853.774943 534.707382 853.661232 546.945171 853.547521 566.842444 853.777089 570.275228 856.064181 578.73704 861.324922 598.17947 861.781911 598.866091 912.559221 672.057183 918.506519 680.40537 922.394147 687.152936 921.823446 687.725846 920.677755 688.869328 920.907322 688.755703 870.016302 719.517651 848.973337 732.326226 829.760475 743.991319 827.471237 745.478079L823.240331 748.224306 821.867217 745.593936C821.069095 744.220822 815.922065 733.928843 810.318045 722.604968 799.453284 700.877635 792.821575 688.869328 775.325105 659.705684 754.393705 624.940165 747.075439 598.979738 747.305007 560.094879 747.41861 540.311316 749.021399 527.159463 753.366016 510.119982 754.509562 505.543652 760.113581 483.70042 765.717601 461.743519 771.319475 439.670676 776.466505 420.457814 777.266773 419.086781 779.897144 414.280948 787.217555 412.682558 791.905451 415.99734 795.108667 418.286578 796.479635 422.744906 797.96646 436.355851 801.856233 473.178937 800.369408 502.458438 791.678029 552.662966 786.872131 580.223865 788.70438 603.324355 796.365924 611.558745 800.940109 616.592064 812.718848 614.532394 816.9519 608.128107 818.782003 605.381879 818.895714 604.126768 817.638457 595.66281 815.692497 582.281433 815.922065 572.332753 818.552435 556.664283 824.156455 523.728825 825.529569 510.576907 826.21398 483.816276 827.130104 447.791355 824.042744 415.770004 818.438724 405.018868 815.235508 398.614581 808.831221 392.667283 801.510809 389.352501 793.392275 385.576439 780.926979 384.66246 774.752259 387.292831 771.435332 388.550088 770.28964 388.665944 769.946362 387.636109 769.71894 386.835842 767.661415 378.144462 765.374323 368.19368 760.341003 346.236736 752.449891 321.078721 735.637833 273.272915 733.237029 266.52535 734.608083 263.781268 739.184327 265.838793 743.415233 267.782607 786.417288 326.451028 804.714025 355.385105 829.187629 393.810829 842.339482 422.860762 849.430326 453.738653 850.917151 460.027148 852.519832 467.004174 853.090532 469.405085 853.8908 472.721862 856.291603 475.58195 865.669539 483.70042 872.073826 489.190771 878.59397 494.792602 880.080795 495.938294L882.938587 498.225386 882.13832 485.646379C878.478114 428.692204 856.177892 377.457905 802.083655 301.634146 778.639887 268.698731 764.001209 249.942858 757.596922 244.45255 750.278699 238.164119 737.240449 235.304181 728.20371 238.048262ZM713.337696 293.858891C718.255073 306.667466 730.608718 344.179211 734.953421 359.388589 746.388882 399.301138 748.332653 418.857278 742.844533 442.98756L741.47142 449.164426 740.557441 442.873892C736.210678 413.823959 729.006123 379.288008 720.428455 346.809582 714.824435 325.766617 713.567178 321.192432 709.336272 306.667466 704.762087 290.769386 704.646231 290.082829 707.392458 288.59815 710.479818 286.768047 710.707283 286.997614 713.337696 293.858891Z" fill="#000000" /><path d="M480.837306 252.68694C479.923285 254.403332 474.890008 265.381804 469.745123 277.046832 464.598093 288.711861 459.451063 298.890065 458.193806 299.806189 457.05026 300.606457 446.985767 305.294352 435.779873 310.211815 406.159239 323.136246 404.215425 324.050225 405.243029 324.964204 405.815961 325.423339 410.619713 327.480863 415.992019 329.654245 421.368617 331.827626 433.376924 336.972511 442.75486 341.089706L459.794341 348.637539 468.258299 367.393412C471.974459 375.640546 475.634064 383.912998 479.236771 392.210294 480.609884 395.527221 482.096709 398.271303 482.439987 398.271303 482.783351 398.271303 488.041861 387.17912 493.989159 373.570277L504.85392 348.867107 523.609879 340.975995C546.025871 331.484348 561.235249 324.734636 560.891971 324.393503 560.321206 324.050225 521.322701 306.781177 515.489114 304.380374 504.740252 299.917755 504.626498 299.806189 493.648026 274.186894 487.92815 261.035041 483.124399 250.056569 482.896977 249.829147 482.667409 249.59958 481.753495 250.858982 480.837306 252.68694ZM484.497512 301.293014C488.385226 310.211815 492.961534 315.929546 499.479404 320.276308L506.111177 324.736782 503.139717 326.109895C495.705551 329.424677 491.245078 333.657729 487.127883 341.205562 484.84079 345.550179 482.667409 349.096674 482.324045 349.096674 481.980852 349.096674 480.037039 346.007169 477.979514 342.349108 473.976094 335.028697 469.745123 330.913647 462.654194 327.253441 457.623106 324.736782 457.850527 323.706947 464.027393 320.505876 469.401845 317.759649 475.806132 310.441383 479.123103 303.120971 480.496173 300.149467 481.867141 297.632808 482.21042 297.632808 482.667409 297.632808 483.697244 299.3492 484.497512 301.293014Z" fill="#000000" /><path d="M592.456418 342.462819C589.939759 347.723561 585.93842 356.758219 583.421825 362.58966L579.074998 373.111143 559.29135 382.832357C548.426675 388.093099 539.505728 392.667283 539.505728 393.010561 539.505728 393.353797 548.312964 398.043881 559.061868 403.418333L578.618009 413.253259 582.164503 421.487542C584.108317 426.061833 588.452999 435.096491 591.656151 441.730346L597.603449 453.738653 600.461198 447.448077C602.063922 444.015293 606.178886 434.98278 609.611756 427.434947L615.900187 413.710141 634.656124 404.334457C644.834306 399.185346 653.984778 394.956521 654.785046 394.956521 659.129663 394.726953 654.098489 391.410026 636.029173 382.604935L616.016 372.883721 613.385608 367.050134C610.514063 360.672879 607.616986 354.307168 604.694293 347.953128 601.491076 340.746427 598.403716 334.457997 597.94677 333.885151 597.487592 333.428161 595.086789 337.317935 592.456418 342.462819ZM601.147712 385.007884C603.207425 387.74982 606.178886 390.609758 607.665796 391.294084L610.525734 392.553615 604.121447 398.730438C600.688663 402.161076 597.830871 405.591714 597.830871 406.505693 597.830871 407.305961 596.916892 406.392068 595.7712 404.561836 594.514029 402.618065 591.54244 399.301138 589.02578 397.014046L584.451681 392.89685 588.912069 389.122934C591.426583 387.063263 593.943243 384.205471 594.629864 382.718646 595.316356 381.231822 596.2304 379.972419 596.68947 379.972419 597.032748 379.972419 599.090273 382.261657 601.147712 385.005739Z" fill="#000000" /><path d="M388.546913 375.40038C385.229985 382.03209 381.342358 390.268625 379.855533 393.697118L377.338873 399.987695 362.013639 406.962747C346.003993 414.283094 344.860447 415.312929 347.26125 421.258082 348.061518 423.317752 351.608013 425.491133 362.129495 430.178986L375.967905 436.469605 384.772996 454.538921C389.576748 464.487558 393.921365 472.608237 394.492065 472.608237 394.9512 472.608237 399.411673 464.373911 404.215425 454.309353 410.276434 442.073539 413.934495 435.896673 415.421319 435.325994 416.680765 434.98278 423.19872 432.009217 430.059997 428.80806L442.297914 423.088099 442.297914 413.36697 430.059997 408.106228C414.50734 401.474519 412.44767 400.446829 411.30406 398.271303 410.73351 397.357324 406.845796 389.122934 402.499033 379.974565L394.607922 363.389928 388.546913 375.40038ZM400.668931 416.570186L403.18559 419.430124 398.838828 424.231816 394.494168 429.149129 392.550397 426.17769C391.520562 424.575009 389.690459 422.287917 388.431056 421.028514L386.146109 418.743567 390.490726 413.939773C394.721633 409.25192 394.837489 409.136064 396.438024 411.423242 397.352003 412.682558 399.184252 414.969651 400.668931 416.570186Z" fill="#000000" /><path d="M411.30406 484.386976C381.342358 521.43963 353.781394 555.750262 333.995686 580.337576L309.522083 610.872188 313.296 614.189116C315.35567 616.019218 337.883314 635.68907 363.386753 657.991437 404.901982 694.357556 488.385226 766.293622 503.594582 778.872629 506.913591 781.503 510.000951 783.676381 510.45794 783.676381 511.944764 783.676381 559.061868 744.220822 580.79139 724.894249 583.651328 722.263878 592.342707 714.829756 600.117963 708.195987 617.502868 693.327699 631.798267 681.091927 672.738505 645.182863 690.352977 629.857628 706.362623 615.905507 708.420148 614.304972L712.080353 611.215359 708.304291 606.870849C706.246766 604.35419 688.636521 582.626749 669.194156 558.380632 649.751726 534.136596 627.678926 506.689344 620.133152 497.425119L606.408582 480.613124 414.277773 480.613124 411.30406 484.389208ZM560.548693 524.872371C553.801127 533.563665 539.849092 551.86272 529.557048 565.585187 519.151465 579.309972 510.228372 590.402069 509.771426 590.172502 509.200683 589.94508 498.449633 575.877102 485.641058 558.951332 475.562619 545.448327 465.42224 531.99175 455.220157 518.581794L447.901891 509.206004 572.670711 509.206004 560.548693 524.872371ZM446.528713 552.776613C456.084875 565.480316 465.653824 578.174579 475.235432 590.859015L477.749946 594.405467 418.738247 594.748831C386.146109 594.862542 359.383268 594.748831 359.042135 594.519328 358.698857 594.062275 419.424803 518.354308 420.225071 518.354308 420.338782 518.354308 432.233378 533.907029 446.528713 552.776613ZM613.383527 533.450039C647.007645 575.076835 661.87589 593.716851 661.87589 594.289654 661.87589 594.632975 634.76977 594.976253 601.720644 594.976253L541.679109 594.976253 556.317787 575.763391C569.585067 558.398912 582.927289 541.091803 596.344046 523.842536 598.631181 520.868951 600.918231 518.695505 601.261573 518.925073 601.720644 519.268351 607.208743 525.786264 613.383527 533.450039ZM654.212114 623.223773C654.555478 623.796619 648.494555 629.514436 640.832989 636.148205 607.439554 664.809869 574.083559 693.515172 540.765087 722.263878L510.685362 748.337953 508.170891 746.164636C506.913591 745.021176 495.248562 735.072453 482.324045 723.98027 468.32704 712.062374 454.374834 700.091957 440.467682 688.06906 407.989256 659.935251 374.365224 630.771607 369.677329 626.540701L365.103144 622.537217 509.43025 622.423506C588.796213 622.423506 653.984778 622.766784 654.212114 623.223773Z" fill="#000000" /></svg>