<?xml version="1.0" encoding="UTF-8"?>
<svg id="_图层_1" data-name=" 图层 1" xmlns="http://www.w3.org/2000/svg" viewBox="0 0 670 442.3">
  <path d="M58,72h51.2c-16.5,0-30-13.4-30-30s13.5-30,30-30h525.8c16.6,0,30,13.4,30,30s-13.4,30-30,30h-40c16.6,0,30,13.4,30,30s-13.4,30-30,30h-26.5c-16.6,0-30,13.4-30,30s13.4,30,30,30h71.5c16.6,0,30,13.4,30,30s-13.4,30-30,30h-69v.3c-1.33-.2-2.67-.3-4-.3h-75c-16.6,0-30,13.4-30,30s13.4,30,30,30h75c1.33,0,2.67-.1,4-.3v.3h22c16.6,0,30,13.4,30,30s-13.4,30-30,30h-60c16.6,0,30,13.4,30,30s-13.4,30-30,30H75c-16.6,0-30-13.4-30-30s13.4-30,30-30h18c-16.6,0-30-13.4-30-30s13.4-30,30-30H30c-16.6,0-30-13.4-30-30s13.4-30,30-30h93c16.6,0,30-13.4,30-30s-13.4-30-30-30h-16c-16.6,0-30-13.4-30-30s13.4-30,30-30h-49c-16.6,0-30-13.4-30-30s13.4-30,30-30Z" style="fill: #ffc107; fill-rule: evenodd; isolation: isolate; opacity: .15;"/>
  <path d="M548.24,25.3c4.1,0,7.5-3.4,7.5-7.5s-3.4-7.5-7.5-7.5-7.5,3.4-7.5,7.5,3.4,7.5,7.5,7.5Z" style="fill: #9e9e9e; isolation: isolate;"/>
  <path d="M524.24,58.3c2.5,0,4.5-2,4.5-4.5s-2-4.5-4.5-4.5-4.5,2-4.5,4.5,2,4.5,4.5,4.5Z" style="fill: #9e9e9e; isolation: isolate;"/>
  <path d="M563.74,87.3c3.9,0,7-3.1,7-7s-3.1-7-7-7-7,3.1-7,7,3.1,7,7,7Z" style="fill: #9e9e9e; isolation: isolate;"/>
  <g>
    <path d="M232.74,3.5l9.8,17" style="fill: #9e9e9e; stroke: #9e9e9e; stroke-linecap: round; stroke-miterlimit: 10; stroke-width: 7px;"/>
    <path d="M246.24,7.1l-17.1,9.8" style="fill: #9e9e9e; stroke: #9e9e9e; stroke-linecap: round; stroke-miterlimit: 10; stroke-width: 7px;"/>
  </g>
  <g>
    <path d="M488.24,404.7l-19-10.9" style="fill: #9e9e9e; stroke: #9e9e9e; stroke-linecap: round; stroke-miterlimit: 10; stroke-width: 6px;"/>
    <path d="M473.24,408.8l11-19" style="fill: #9e9e9e; stroke: #9e9e9e; stroke-linecap: round; stroke-miterlimit: 10; stroke-width: 6px;"/>
  </g>
  <path d="M418.24,442.3c4.1,0,7.5-3.4,7.5-7.5s-3.4-7.5-7.5-7.5-7.5,3.4-7.5,7.5,3.4,7.5,7.5,7.5Z" style="fill: #9e9e9e; isolation: isolate;"/>
  <path d="M382.24,385.3c2.5,0,4.5-2,4.5-4.5s-2-4.5-4.5-4.5-4.5,2-4.5,4.5,2,4.5,4.5,4.5Z" style="fill: #9e9e9e; isolation: isolate;"/>
  <g>
    <path d="M596.74,244.9l-13.9,3.7" style="fill: #9e9e9e; stroke: #9e9e9e; stroke-linecap: round; stroke-miterlimit: 10; stroke-width: 6px;"/>
    <path d="M591.64,253.7l-3.7-13.9" style="fill: #9e9e9e; stroke: #9e9e9e; stroke-linecap: round; stroke-miterlimit: 10; stroke-width: 6px;"/>
  </g>
  <path d="M467.64,47.47c-4.37,3.23-8.75,6.33-13.15,9.3-.32.22-.64.43-.96.64-5.48,3.67-10.97,7.14-16.49,10.39-.27.16-.55.32-.82.48-9.21,5.4-18.45,10.22-27.73,14.45-.31.14-.63.29-.94.43-5.74,2.59-11.49,4.96-17.23,7.09-.31.11-.62.23-.93.34-.35.13-.71.26-1.06.39-9.69,3.51-19.55,6.4-29.52,8.67-.37.08-.73.16-1.1.25-6.78,1.5-13.59,2.7-20.41,3.6-.31.05-.61.09-.92.12-9.69,1.25-19.44,1.87-29.2,1.87-23.01,0-46.51-3.49-70.02-10.38-.34-.1-.67-.2-1.01-.3-3.97-1.17-7.94-2.45-11.91-3.82-2.49-.86-4.99-1.77-7.5-2.71-.3-.11-.6-.23-.9-.34-10.66-4.05-21.38-8.82-32.18-14.31-.33-.16-.66-.33-.99-.5-6.5-3.32-13.02-6.91-19.56-10.74-.28-.16-.56-.32-.83-.49-7.57-4.47-15.15-9.27-22.74-14.41l.46-.89c7.85,5.32,15.69,10.27,23.5,14.86h.02c6.31,3.72,12.61,7.18,18.9,10.39,10.91,5.6,22.05,10.56,33.39,14.88.75.28,1.49.57,2.24.83,6.33,2.35,12.65,4.44,18.95,6.28.34.1.68.2,1.02.3,33.03,9.54,65.67,12.3,97.92,8.27.31-.03.61-.07.92-.12,6.42-.82,12.83-1.91,19.21-3.28,1.1-.24,2.2-.48,3.3-.74,9.89-2.26,19.65-5.15,29.27-8.63.31-.11.62-.23.93-.34,6.05-2.21,12.07-4.67,18.08-7.37.31-.14.63-.28.94-.43,9.04-4.11,18.04-8.78,27-14.02.27-.15.55-.31.82-.48,5.76-3.38,11.5-7,17.23-10.85.32-.21.64-.43.96-.65,4.2-2.84,8.38-5.8,12.55-8.89,0,0,.48.86.48.86Z" style="fill: #f2f2f2;"/>
  <path d="M182.41,71.85l-18.9-10.38h-.02s-1.05-.59-1.05-.59l-.17,1.02-5.2,30.98,26.57-19.24.88-.63s-2.11-1.16-2.11-1.16ZM158.34,90.74l4.76-28.35h0s19.56,10.74,19.56,10.74h0s-24.31,17.61-24.31,17.61Z" style="fill: #f2f2f2;"/>
  <path d="M237,93.84l-.87.98-18.8,21.25-.61-27.78-.02-1.09,1.34.36c-.75-.27-1.49-.55-2.24-.83l.03,1.22.66,30.53,20.65-23.34.88-.99c-.34-.1-.68-.2-1.02-.3Z" style="fill: #f2f2f2;"/>
  <path d="M356.08,99.01l2.12-.29-.49,1.2-11.8,28.62-8.61-25.02-.43-1.23c-.31.05-.61.09-.92.12l.43,1.24,9.47,27.48,12.96-31.46.58-1.4c-1.1.26-2.2.5-3.3.74Z" style="fill: #f2f2f2;"/>
  <path d="M407.65,81.93l-.11,1.26-2.36,26.67-14.87-19.58-.74-.97c-.31.12-.62.23-.93.34l.74.97,16.49,21.71,2.62-29.57.11-1.26c-.31.14-.63.28-.94.43Z" style="fill: #f2f2f2;"/>
  <path d="M453.64,56.15l-.11,1.27-2.6,28.77-13.89-18.37-.62-.82c-.27.17-.55.33-.82.48l.62.82,15.39,20.36,2.88-31.88.12-1.28c-.32.22-.64.44-.96.65h0Z" style="fill: #f2f2f2;"/>
  <path d="M336.72,238.08c-5.51-5.34-8.86-13.77-7.98-21.97.88-8.21,6.31-15.75,13.36-17.5s15.08,3.08,17.23,10.98c1.18-15.22,2.54-31.08,9.6-44.04,6.39-11.74,17.46-20.14,29.46-21.64s24.63,4.17,32.11,15.03,9.31,26.64,4.08,39.1c-3.86,9.18-10.97,16.01-18.42,21.58-24.08,17.81-52.96,25.06-81.33,20.4l1.9-1.93h0Z" style="fill: #f2f2f2;"/>
  <path d="M418.63,148.4c-9.9,9.24-18.98,19.59-27.11,30.87-12.73,17.6-23.02,37.33-30.54,58.51-.55,1.54,1.64,2.22,2.18.69,12.29-34.42,31.91-64.76,57.07-88.23,1.13-1.05-.48-2.88-1.6-1.84h0Z" style="fill: #fff;"/>
  <path d="M222.53,323.38c-1.12.19-2.25.36-3.38.51-27.31,3.56-54.85-3.82-77.95-20.91-7.45-5.56-14.56-12.39-18.42-21.58-5.24-12.46-3.41-28.25,4.08-39.1,2.72-3.92,6.08-7.2,9.89-9.66.57-.38,1.14-.73,1.72-1.06,6.33-3.65,13.45-5.15,20.5-4.31,12,1.5,23.07,9.91,29.46,21.64,7.06,12.96,8.42,28.82,9.59,44.04.09-.35.2-.69.32-1.03.25-.72.55-1.41.9-2.07v25.29c0,4.26,3.02,7.71,6.73,7.72h16.05l.51.52h0Z" style="fill: #f2f2f2;"/>
  <path d="M138.72,231.76c9.9,9.24,18.98,19.59,27.11,30.87,8.13,11.27,15.3,23.42,21.38,36.28,3.4,7.21,6.46,14.63,9.16,22.23.55,1.54-1.64,2.22-2.18.69-4.78-13.39-10.69-26.21-17.65-38.28-6.93-12.03-14.85-23.25-23.67-33.52-4.99-5.8-10.25-11.29-15.76-16.44-1.13-1.05.48-2.88,1.6-1.84h0Z" style="fill: #fff;"/>
  <path d="M353.85,265.23h-116.47v-14.67c0-2.7-1.91-4.89-4.26-4.89s-4.26,2.19-4.26,4.89v19.55c0,2.7,1.91,4.88,4.26,4.89h120.73c2.36,0,4.26-2.19,4.26-4.89s-1.91-4.89-4.26-4.89Z" style="fill: #f2f2f2;"/>
  <path d="M469.26,366.57H137.9c-.3,0-.53-.28-.53-.62,0-.33.24-.61.53-.61h331.36c.3,0,.53.28.53.62,0,.33-.24.61-.53.61h0Z" style="fill: #3f3d56;"/>
  <path d="M429.93,322.86h-252.69c-4.21,0-7.63,3.92-7.63,8.75v26.24c0,4.83,3.42,8.74,7.63,8.75h252.69c4.21,0,7.63-3.92,7.63-8.75v-26.24c0-4.83-3.42-8.74-7.63-8.75ZM436.66,357.85c0,4.26-3.02,7.71-6.73,7.72h-252.69c-3.72,0-6.73-3.46-6.73-7.72v-26.24c0-4.26,3.02-7.71,6.73-7.72h252.69c3.72,0,6.73,3.46,6.73,7.72v26.24Z" style="fill: #3f3d56;"/>
  <path d="M417.58,350.65h-233.61v-14.67c0-2.7-1.91-4.89-4.26-4.89s-4.26,2.19-4.26,4.89v19.55c0,2.7,1.91,4.88,4.26,4.89h237.88c2.36,0,4.26-2.19,4.26-4.89s-1.91-4.89-4.26-4.89Z" style="fill: #f2f2f2;"/>
  <path d="M375.84,305.36h-162.7v-14.67c0-2.7-1.91-4.89-4.26-4.89s-4.26,2.19-4.26,4.89v19.55c0,2.7,1.91,4.88,4.26,4.89h166.96c2.36,0,4.26-2.19,4.26-4.89s-1.91-4.89-4.26-4.89Z" style="fill: #f2f2f2;"/>
  <path d="M391.74,339.36c-35.91-10.29-112.21,4.12-113.55,4.12s-84.79,14.23-82.04-19.59c.03-.34.06-.68.11-1.03h224.07c.05.3.11.65.16,1.03.87,6.71.44,23.84-28.74,15.47Z" style="fill: #ffc107;"/>
  <path d="M401.65,280.15h-195.69c-4.21,0-7.63,3.92-7.63,8.75v26.24c0,4.83,3.42,8.74,7.63,8.75h195.69c4.21-.02,7.62-3.93,7.63-8.75v-26.24c0-4.83-3.42-8.74-7.63-8.75ZM408.38,315.14c0,4.26-3.02,7.71-6.73,7.72h-195.69c-3.72-.01-6.72-3.46-6.73-7.72v-26.24c0-4.26,3.02-7.71,6.73-7.72h195.69c3.72,0,6.73,3.46,6.73,7.72v26.24Z" style="fill: #3f3d56;"/>
  <path d="M376.75,294.61c-31.38-8.99-98.07,3.6-99.25,3.6s-74.11,12.44-71.7-17.13c.02-.3.05-.59.09-.9h195.85c.04.27.09.57.14.9.76,5.86.39,20.84-25.12,13.52h0Z" style="fill: #ffc107;"/>
  <path d="M377.41,280.66h-147.66c-4.21,0-7.63-3.92-7.63-8.75v-26.24c0-4.83,3.42-8.74,7.63-8.75h147.66c4.21,0,7.63,3.92,7.63,8.75v26.24c0,4.83-3.42,8.74-7.63,8.75ZM229.75,237.95c-3.72,0-6.73,3.46-6.73,7.72v26.24c0,4.26,3.02,7.71,6.73,7.72h147.66c3.72,0,6.73-3.46,6.73-7.72v-26.24c0-4.26-3.02-7.71-6.73-7.72h-147.66Z" style="fill: #3f3d56;"/>
  <path d="M359.77,248.04c-24.07-6.9-75.2,2.76-76.11,2.76s-56.83,9.54-54.99-13.13c.02-.23.04-.45.07-.69h150.18c.04.21.07.43.1.69.58,4.49.3,15.98-19.26,10.37h0Z" style="fill: #ffc107;"/>
  <ellipse cx="303.77" cy="237.99" rx="15.26" ry="1.54" style="fill: #3f3d56;"/>
  <path d="M302.91,180.69c-.01.28,0,.57.02.85l-17.05,16.4-5.09-2.11-3.78,8.38,11.12,6.07,18.64-23.98c2.56.53,5.01-1.42,5.48-4.35s-1.23-5.75-3.79-6.28-5.01,1.42-5.48,4.35c-.04.22-.06.44-.07.66h0Z" style="fill: #ffb8b8;"/>
  <path d="M280.04,208.24l-16.46-6.81c-3.15-1.3-4.78-5.28-3.65-8.89,1.13-3.61,4.6-5.49,7.75-4.19,0,0,0,0,.01,0l16.46,6.81c1.05.43,1.59,1.76,1.22,2.96h0l-2.74,8.71c-.38,1.2-1.53,1.82-2.59,1.39h0Z" style="fill: #2f2e41;"/>
  <path d="M302.46,167.97c-.25,0-.45-.23-.45-.51v-19.04c0-.28.2-.51.45-.51s.45.23.45.51v19.04c0,.28-.2.51-.45.51Z" style="fill: #3f3d56;"/>
  <path d="M310.09,144.3c4.18,4.45-1.03,13.89-6.73,13.89s-10.32-5.3-10.32-11.84,11.16-35.37,8.98-29.33c-.7,1.93,3.29,22.18,8.08,27.27Z" style="fill: #ffc107;"/>
  <path d="M306.5,219.17h-7.63c-1.11,0-2.02-1.04-2.02-2.32v-52.49c0-1.28.91-2.32,2.02-2.32h7.63c1.11,0,2.02,1.04,2.02,2.32v52.49c0,1.28-.91,2.32-2.02,2.32Z" style="fill: #ccc;"/>
  <polygon points="267.98 274.62 273.49 274.62 276.11 250.28 267.98 250.28 267.98 274.62" style="fill: #ffb8b8;"/>
  <path d="M284.1,280.47h-17.29v-7.66h10.61c3.69,0,6.68,3.43,6.68,7.66h0Z" style="fill: #2f2e41;"/>
  <polygon points="254.39 266.47 258.89 270.09 273.24 251.91 266.59 246.56 254.39 266.47" style="fill: #ffb8b8;"/>
  <path d="M264.63,281.88l-14.15-11.4h0l3.84-6.27h0l8.68,7c3.02,2.43,3.74,7.21,1.62,10.67h0Z" style="fill: #2f2e41;"/>
  <path d="M280.02,230.78s13.73-1.86,11.27,8.36-29.93,19.04-29.93,19.04l18.66-27.4Z" style="fill: #ffb8b8;"/>
  <ellipse cx="270.57" cy="166.01" rx="11.02" ry="12.64" style="fill: #ffb8b8;"/>
  <path d="M235.42,256.09c-6.27-8.37-8.47-21.23,1.53-31.91,2.47-2.57,5.27-4.7,8.29-6.32l8.06-25.85c1.71-5.53,6.24-9.26,11.36-9.37,4.97-.25,9.54,3.12,11.4,8.41.98,2.62,1.1,5.57.32,8.28-2.4,8.57-5.55,16.84-9.41,24.67l.42,3.82,20.38,2.08-.19.36c-.1.19-10.07,17.61-22.83,29.17-4.36,3.95-8.87,5.59-13.13,5.59-6.45,0-12.33-3.77-16.21-8.94h0Z" style="fill: #2f2e41;"/>
  <path d="M303.46,198.34c-.12.25-.22.51-.3.78l-21.52,6.54-3.82-4.39-6.53,5.74,7.81,10.91,25.76-12.62c2.12,1.73,5.06,1.16,6.57-1.27,1.51-2.43,1.01-5.8-1.11-7.53-2.12-1.73-5.06-1.16-6.57,1.27-.11.18-.22.37-.31.57h0Z" style="fill: #ffb8b8;"/>
  <path d="M272.55,212.13l-12.38-14.19c-2.37-2.71-2.37-7.11,0-9.82s6.2-2.72,8.57,0h0l12.38,14.19c.79.91.79,2.37,0,3.27h0l-5.71,6.55c-.79.9-2.07.9-2.85,0Z" style="fill: #2f2e41;"/>
  <path d="M233.49,169.98c1.95-2.67,2.79-6.15,3.46-9.54,1.06-5.37,1.89-10.91,4.25-15.71,2.37-4.79,6.71-8.76,11.5-8.45,4.77.3,8.62,4.7,10.66,9.7,1-.45,2.12-.39,3.08.17,1.47.93,2.02,3.56.8,4.87,2.61-1.43,5.62-1.51,8.29-.24,3.46,1.69,5.8,5.45,6.07,9.75.1,1.73-.42,3.43-1.45,4.7-2.11,2.5-5.11,1.64-7.76,1-2.51-.6-5.57-.76-6.99,1.98-.56,1.14-.71,2.49-.44,3.76.54,2.74,2.31,4.65,4.03,6.47l.28.6c-6.06,1.35-12.68-3.39-14.27-10.23-1.59-6.84,2.09-14.73,7.94-17.01h0c-1.21.04-2.22-1.04-2.25-2.43-.01-.46.09-.93.29-1.33-1.68-.96-3.45-1.66-5.3-1.52-3.02.23-5.63,2.69-7.2,5.66-1.57,2.96-2.28,6.41-3,9.77-.72,3.37-1.5,6.8-3.18,9.69-4.12,7.08-12.47,8.99-18.65,4.26-1.09-.83-2.06-1.84-2.89-2.99,4.34,2.41,9.55,1.21,12.73-2.94h0Z" style="fill: #2f2e41;"/>
</svg>