<?xml version="1.0" encoding="UTF-8"?>
<svg id="_图层_1" data-name=" 图层 1" xmlns="http://www.w3.org/2000/svg" viewBox="0 0 670 442.3">
  <path d="M58,72h51.2c-16.5,0-30-13.4-30-30s13.5-30,30-30h525.8c16.6,0,30,13.4,30,30s-13.4,30-30,30h-40c16.6,0,30,13.4,30,30s-13.4,30-30,30h-26.5c-16.6,0-30,13.4-30,30s13.4,30,30,30h71.5c16.6,0,30,13.4,30,30s-13.4,30-30,30h-69v.3c-1.33-.2-2.67-.3-4-.3h-75c-16.6,0-30,13.4-30,30s13.4,30,30,30h75c1.33,0,2.67-.1,4-.3v.3h22c16.6,0,30,13.4,30,30s-13.4,30-30,30h-60c16.6,0,30,13.4,30,30s-13.4,30-30,30H75c-16.6,0-30-13.4-30-30s13.4-30,30-30h18c-16.6,0-30-13.4-30-30s13.4-30,30-30H30c-16.6,0-30-13.4-30-30s13.4-30,30-30h93c16.6,0,30-13.4,30-30s-13.4-30-30-30h-16c-16.6,0-30-13.4-30-30s13.4-30,30-30h-49c-16.6,0-30-13.4-30-30s13.4-30,30-30Z" style="fill: #ffc107; fill-rule: evenodd; isolation: isolate; opacity: .15;"/>
  <path d="M548.24,25.3c4.1,0,7.5-3.4,7.5-7.5s-3.4-7.5-7.5-7.5-7.5,3.4-7.5,7.5,3.4,7.5,7.5,7.5Z" style="fill: #9e9e9e; isolation: isolate;"/>
  <path d="M524.24,58.3c2.5,0,4.5-2,4.5-4.5s-2-4.5-4.5-4.5-4.5,2-4.5,4.5,2,4.5,4.5,4.5Z" style="fill: #9e9e9e; isolation: isolate;"/>
  <path d="M563.74,87.3c3.9,0,7-3.1,7-7s-3.1-7-7-7-7,3.1-7,7,3.1,7,7,7Z" style="fill: #9e9e9e; isolation: isolate;"/>
  <g>
    <path d="M232.74,3.5l9.8,17" style="fill: #9e9e9e; stroke: #9e9e9e; stroke-linecap: round; stroke-miterlimit: 10; stroke-width: 7px;"/>
    <path d="M246.24,7.1l-17.1,9.8" style="fill: #9e9e9e; stroke: #9e9e9e; stroke-linecap: round; stroke-miterlimit: 10; stroke-width: 7px;"/>
  </g>
  <g>
    <path d="M488.24,404.7l-19-10.9" style="fill: #9e9e9e; stroke: #9e9e9e; stroke-linecap: round; stroke-miterlimit: 10; stroke-width: 6px;"/>
    <path d="M473.24,408.8l11-19" style="fill: #9e9e9e; stroke: #9e9e9e; stroke-linecap: round; stroke-miterlimit: 10; stroke-width: 6px;"/>
  </g>
  <path d="M418.24,442.3c4.1,0,7.5-3.4,7.5-7.5s-3.4-7.5-7.5-7.5-7.5,3.4-7.5,7.5,3.4,7.5,7.5,7.5Z" style="fill: #9e9e9e; isolation: isolate;"/>
  <path d="M382.24,385.3c2.5,0,4.5-2,4.5-4.5s-2-4.5-4.5-4.5-4.5,2-4.5,4.5,2,4.5,4.5,4.5Z" style="fill: #9e9e9e; isolation: isolate;"/>
  <g>
    <path d="M596.74,244.9l-13.9,3.7" style="fill: #9e9e9e; stroke: #9e9e9e; stroke-linecap: round; stroke-miterlimit: 10; stroke-width: 6px;"/>
    <path d="M591.64,253.7l-3.7-13.9" style="fill: #9e9e9e; stroke: #9e9e9e; stroke-linecap: round; stroke-miterlimit: 10; stroke-width: 6px;"/>
  </g>
  <path d="M345.2,239.03h-94.33c-5.26,0-9.53-4.62-9.54-10.31V93.71c0-5.69,4.27-10.3,9.54-10.31h94.33c5.26,0,9.53,4.62,9.54,10.31v135.01c0,5.69-4.27,10.3-9.54,10.31h0Z" style="fill: #e6e6e6;"/>
  <path d="M338.57,230.44h-81.07c-4.67,0-8.46-4.1-8.46-9.15v-120.14c0-5.05,3.79-9.14,8.46-9.15h81.07c4.67,0,8.46,4.1,8.46,9.15v120.14c0,5.05-3.79,9.14-8.46,9.15h0Z" style="fill: #fff;"/>
  <path d="M330.48,114.83h-64.9c-1.17,0-2.12-1.02-2.12-2.29s.95-2.29,2.12-2.29h64.9c1.17,0,2.12,1.02,2.12,2.29s-.95,2.29-2.12,2.29h0Z" style="fill: #e4e4e4;"/>
  <path d="M330.48,123.87h-64.9c-1.17,0-2.12-1.03-2.12-2.29s.95-2.29,2.12-2.29h64.9c1.17,0,2.12,1.03,2.12,2.29s-.95,2.29-2.12,2.29Z" style="fill: #e4e4e4;"/>
  <path d="M293.72,132.91h-28.13c-1.17,0-2.12-1.03-2.12-2.29s.95-2.29,2.12-2.29h28.13c1.17,0,2.12,1.03,2.12,2.29s-.95,2.29-2.12,2.29h0Z" style="fill: #e4e4e4;"/>
  <path d="M330.48,151.84h-64.9c-1.17,0-2.12-1.02-2.12-2.29s.95-2.29,2.12-2.29h64.9c1.17,0,2.12,1.02,2.12,2.29s-.95,2.29-2.12,2.29h0Z" style="fill: #e4e4e4;"/>
  <path d="M330.48,160.88h-64.9c-1.17,0-2.12-1.03-2.12-2.29s.95-2.29,2.12-2.29h64.9c1.17,0,2.12,1.03,2.12,2.29s-.95,2.29-2.12,2.29Z" style="fill: #e4e4e4;"/>
  <path d="M293.72,169.92h-28.13c-1.17,0-2.12-1.03-2.11-2.29,0-1.26.95-2.28,2.11-2.28h28.13c1.17,0,2.12,1.03,2.12,2.29s-.95,2.29-2.12,2.29h0Z" style="fill: #e4e4e4;"/>
  <path d="M330.48,188.85h-64.9c-1.17,0-2.12-1.02-2.12-2.29s.95-2.29,2.12-2.29h64.9c1.17,0,2.12,1.02,2.12,2.29s-.95,2.29-2.12,2.29h0Z" style="fill: #e4e4e4;"/>
  <path d="M330.48,197.89h-64.9c-1.17,0-2.12-1.03-2.12-2.29s.95-2.29,2.12-2.29h64.9c1.17,0,2.12,1.03,2.12,2.29s-.95,2.29-2.12,2.29Z" style="fill: #e4e4e4;"/>
  <path d="M293.72,206.93h-28.13c-1.17,0-2.12-1.03-2.12-2.29s.95-2.29,2.12-2.29h28.13c1.17,0,2.12,1.03,2.12,2.29s-.95,2.29-2.12,2.29h0Z" style="fill: #e4e4e4;"/>
  <polygon points="279.34 160.55 208.83 95.36 161.47 95.36 161.47 94.4 209.16 94.4 279.92 159.81 279.34 160.55" style="fill: #2f2e41;"/>
  <ellipse cx="161.47" cy="94.88" rx="7.11" ry="7.68" style="fill: #ffc107;"/>
  <path d="M186.81,120.72h-64.9c-1.17,0-2.12-1.02-2.12-2.29s.95-2.29,2.12-2.29h64.9c1.17,0,2.12,1.02,2.12,2.29s-.95,2.29-2.12,2.29h0Z" style="fill: #ffc107;"/>
  <path d="M186.81,129.76h-64.9c-1.17,0-2.12-1.03-2.12-2.29s.95-2.29,2.12-2.29h64.9c1.17,0,2.12,1.03,2.12,2.29s-.95,2.29-2.12,2.29h0Z" style="fill: #ffc107;"/>
  <path d="M150.04,138.8h-28.13c-1.17,0-2.12-1.03-2.12-2.29s.95-2.29,2.12-2.29h28.13c1.17,0,2.12,1.03,2.12,2.29s-.95,2.29-2.12,2.29Z" style="fill: #ffc107;"/>
  <polygon points="298.03 119.22 368.79 53.8 416.49 53.8 416.49 54.76 369.12 54.76 298.61 119.94 298.03 119.22" style="fill: #2f2e41;"/>
  <ellipse cx="416.49" cy="54.28" rx="7.11" ry="7.68" style="fill: #ffc107;"/>
  <path d="M464.81,79.85h-64.9c-1.17,0-2.12-1.02-2.12-2.29s.95-2.29,2.12-2.29h64.9c1.17,0,2.12,1.02,2.12,2.29s-.95,2.29-2.12,2.29h0Z" style="fill: #ffc107;"/>
  <path d="M464.81,88.89h-64.9c-1.17,0-2.12-1.03-2.12-2.29s.95-2.29,2.12-2.29h64.9c1.17,0,2.12,1.03,2.12,2.29s-.95,2.29-2.12,2.29Z" style="fill: #ffc107;"/>
  <path d="M428.05,97.93h-28.13c-1.17,0-2.12-1.03-2.12-2.29s.95-2.29,2.12-2.29h28.13c1.17,0,2.12,1.03,2.12,2.29s-.95,2.29-2.12,2.29Z" style="fill: #ffc107;"/>
  <path d="M413.93,263.54c-1.38-1.62-1.28-4.15.22-5.65.16-.16.33-.3.52-.43l-3.03-13.82,6.41,2.53,1.9,12.74c.98,1.95.32,4.39-1.48,5.45-1.51.89-3.38.55-4.54-.83h0Z" style="fill: #9e616a;"/>
  <path d="M398.51,205.63l2.57,7.15s-1.11,7.15.73,8.74,1.11,1.59,1.11,2.78c.13,1.73.93,3.32,2.21,4.37,1.47,1.19,8.09,25.44,8.09,25.44h6.62c-.22-1.85-.22-3.72,0-5.57.37-2.78-1.11-9.94-1.84-11.13s0-2.78,0-5.16-1.47-3.58-1.47-7.55-4.41-34.97-4.04-38.55-3.68-6.76-3.68-6.76h-3.68l-6.62,26.23h0Z" style="fill: #e6e7e8;"/>
  <polygon points="382.94 220.8 376.82 250.31 416.02 247.68 405.36 218.7 382.94 220.8" style="fill: #9e616a;"/>
  <path d="M468.39,331.72c-1.17,4.56-2.99,8.89-5.4,12.84-5.39,8.8-13.1,15.54-21.57,20.93-.59.38-1.18.75-1.78,1.11h-5.94l-.21-.51h0l-.24-.6-.03-.07v.07s-.25,1.11-.25,1.11h-2.92c-.24-.37-.48-.74-.71-1.11-.34-.55-.67-1.1-.98-1.66-.55-.98-1.04-2-1.47-3.04-.05-.12-.09-.23-.14-.35l.19-.23-.81-3.82,1.62-.29-1.78-5.93c.06-.22.14-.44.22-.66,1-2.73,2.87-4.77,5.09-6.48,2.29-1.77,4.95-3.19,7.4-4.66,1.15-.7,2.28-1.43,3.38-2.2h0c1.41-.99,2.77-2.04,4.1-3.16.02-.01.04-.03.06-.05.02-.01.03-.03.05-.05,5.94-5.01,10.96-11.17,14.81-18.16h0c.13-.22.25-.45.37-.68h0c1.58-2.94,2.94-6,4.06-9.17h0c.09-.24.16-.47.25-.7.11.21.22.41.32.62h0c4.19,8.09,4.58,17.85,2.28,26.91h0Z" style="fill: #f0f0f0;"/>
  <path d="M466.11,304.81c.04,4.32-.38,8.63-1.24,12.85-.39,1.93-.87,3.84-1.45,5.71-1.12,3.67-2.59,7.2-4.37,10.54-.1.18-.19.36-.3.54h0c-.76,1.4-1.59,2.74-2.48,4.05-1.35,2.07-3.01,3.88-4.92,5.35-1.56,1.12-3.32,1.85-5.17,2.16-.35.07-.7.12-1.06.17-1.43.18-2.91.25-4.32.58-.72.15-1.42.4-2.08.72-2.28,1.14-3.56,3.54-4.12,6.09-.1.45-.18.9-.24,1.35-.47,3.48.05,7.09-.22,10.57-.03.37-.07.74-.12,1.11h-.32l-.21-.51h0c.02-.2.04-.4.06-.6.1-1.71.12-3.42.04-5.14-.02-.77-.03-1.54-.02-2.32,0-.62.03-1.24.07-1.86h0c.03-.39.06-.77.11-1.14.14-1.16.4-2.29.79-3.38.76-2.27,2.38-4.08,4.45-4.98.63-.25,1.27-.45,1.93-.58,1.45-.3,2.94-.37,4.39-.57.16-.02.31-.04.46-.07.19-.03.38-.07.57-.11,1.9-.36,3.7-1.21,5.25-2.46,1.84-1.57,3.44-3.45,4.74-5.56.71-1.1,1.38-2.22,2.01-3.37h0c.03-.06.06-.11.09-.17h0c2.69-4.97,4.65-10.34,5.81-15.95.04-.21.08-.41.13-.62.8-4.05,1.19-8.18,1.15-12.32h0c0-.2,0-.39,0-.59,0-.4.57-.49.57-.09,0,.2,0,.39,0,.59h0Z" style="fill: #fff;"/>
  <path d="M458.5,334.33c3.4,1.87,7.55.79,9.79-2.53.22-.33-.24-.71-.46-.38-2.09,3.1-5.96,4.09-9.12,2.33-.33-.19-.55.4-.22.58h0Z" style="fill: #fff;"/>
  <path d="M446.41,345.53c-1.2-3.86-1.01-8.08.53-11.79.15-.37-.38-.61-.54-.24-1.6,3.87-1.79,8.26-.53,12.28.12.38.66.14.54-.24h0Z" style="fill: #fff;"/>
  <path d="M464.55,317.27c-1.43-.42-2.57-1.59-3.03-3.11-.12-.38-.65-.14-.54.24.52,1.67,1.77,2.97,3.35,3.44.15.06.32-.01.38-.17.06-.16,0-.34-.16-.41h0Z" style="fill: #fff;"/>
  <path d="M442.08,336.17h0c-.13,3.34-.52,6.65-1.15,9.91h0c-.03.23-.08.45-.13.67-1.04,5.05-2.5,9.98-4.36,14.75-.51,1.34-1.05,2.67-1.61,3.99-.16.37-.32.74-.48,1.11h-.64l-.21-.51h0l-.24-.6-.03-.07v.07s-.25,1.11-.25,1.11h-6.17l-1.2-1.11-1.75-1.62,2.44-2.88.4-.48.06-.07.19-.23-.81-3.82,1.62-.29-1.78-5.93-.84-2.8-.21-.7-1.23-4.1-3.71.75-.6-2.29c1.11-2.79,2.04-5.66,2.77-8.59,0-.02.01-.04.02-.07,1.96-7.89,2.55-16.12,1.74-24.24h0c-.03-.27-.06-.53-.09-.79h0c-.37-3.38-.99-6.71-1.86-9.97-.06-.25-.13-.49-.19-.73.2.09.39.18.59.28h.01c.32.15.63.31.94.48,7.36,3.87,12.78,11.13,15.86,19.5,0,.02.02.04.03.07,1.61,4.39,2.56,9.02,2.84,13.73.1,1.82.12,3.65.05,5.47h0Z" style="fill: #f0f0f0;"/>
  <path d="M430.87,366.6h-.68c-.22-.38-.45-.75-.68-1.11-.37-.56-.76-1.12-1.15-1.66-.34-.47-.68-.93-1.02-1.39-.35-.48-.7-.96-1.04-1.46l.4-.48c.06.09.13.19.2.28,1.11,1.57,2.3,3.08,3.32,4.7.23.36.45.73.66,1.11h0Z" style="fill: #fff;"/>
  <path d="M421.62,296.91c.11.15.23.31.34.47.84,1.18,1.64,2.4,2.39,3.65,1.33,2.22,2.52,4.53,3.55,6.93.08.19.16.38.24.57,2.2,5.24,3.63,10.82,4.25,16.54,0,.06.01.11.02.16.14,1.33.23,2.67.28,4.02.14,2.53-.09,5.07-.69,7.52-.09.32-.18.64-.28.95-.26.76-.58,1.48-.97,2.17-.28.5-.59.98-.92,1.44-.2.28-.41.56-.64.82-.13.15-.26.31-.4.46-.11.12-.22.24-.33.35-1.17,1.22-2.45,2.36-3.51,3.7l.21.7c1.01-1.39,2.32-2.54,3.5-3.76.74-.75,1.41-1.58,2.01-2.46.08-.12.16-.24.23-.37.4-.63.75-1.3,1.03-2,.15-.35.28-.71.4-1.08.7-2.41,1.03-4.94.95-7.47-.01-1.62-.1-3.24-.27-4.85-.02-.21-.04-.42-.06-.63-.44-3.83-1.23-7.61-2.38-11.26-1.45-4.64-3.45-9.06-5.94-13.15-.71-1.17-1.47-2.31-2.27-3.43-.1-.15-.21-.3-.32-.46-.23-.32-.64.13-.41.44h0Z" style="fill: #fff;"/>
  <path d="M432.73,325.44c3.75-.72,6.47-4.27,6.41-8.39,0-.17-.14-.31-.3-.31-.15,0-.28.14-.28.3.06,3.84-2.48,7.14-5.98,7.79-.37.07-.22.68.15.61h0Z" style="fill: #fff;"/>
  <path d="M429.32,342.25c-3.11-2.3-5.31-5.79-6.15-9.76-.08-.39-.64-.23-.56.16.88,4.13,3.17,7.75,6.41,10.14.31.23.6-.32.29-.54h0Z" style="fill: #fff;"/>
  <path d="M428.06,307.89c-1.37.6-2.94.41-4.15-.51-.31-.23-.6.31-.29.54,1.35,1,3.07,1.22,4.59.57.15-.05.24-.21.21-.38-.04-.17-.2-.27-.35-.22h0Z" style="fill: #fff;"/>
  <polygon points="389.46 357 385.06 357 382.97 338.64 389.46 338.64 389.46 357" style="fill: #9e616a;"/>
  <path d="M391.83,366.04h-3.13l-.56-3.19-1.43,3.19h-8.29c-1.03,0-1.86-.9-1.86-2.02,0-.66.3-1.28.8-1.66l6.62-4.94v-3.22l6.96.45.88,11.38h0Z" style="fill: #2f2e41;"/>
  <polygon points="431.09 354.64 426.79 355.64 421.14 338.18 427.49 336.69 431.09 354.64" style="fill: #9e616a;"/>
  <path d="M435.18,362.93l-3.05.71-1.17-2.99-.77,3.44-8.1,1.9c-1.01.24-2-.45-2.21-1.54-.13-.65.04-1.32.46-1.81l5.5-6.35-.63-3.15,6.89-1.16,3.09,10.93h0,0Z" style="fill: #2f2e41;"/>
  <path d="M462.1,366.04c0,.31-.23.56-.51.56h-121c-.28,0-.51-.25-.51-.56s.23-.56.51-.56h120.99c.28,0,.51.25.51.55h0Z" style="fill: #ccc;"/>
  <path d="M375.82,274.99c3.09,18.36,3.86,26.29,3.86,26.29,0,0-2.32,2.92-.77,4.59s0,5.01,0,5.01l3.47,40.47,2.8-.49,6.74-1.17,2.43-.42-1.55-37.97s1.55-3.34.77-4.18.77-5.84.77-5.84l1.93-39.64,11.97,43.4s-1.16,1.67,0,2.92c1.16,1.25,3.47,7.51,3.47,7.51l7.12,26.92.6,2.29,3.71-.75,4.04-.82.74-.15,1.32-.27.85-.17.29-.06,1.4-.28-.42-2.03-.22-1.07-6.02-28.91-.14-.67-.15-.7s.77-2.09-.38-3.34c-.69-.77-.98-1.87-.77-2.92.04-.04.07-.09.1-.14.14-.2.23-.43.28-.68.1-.52.01-1.26-.77-2.1-.22-.25-.41-.54-.55-.85-1.17-2.4-1.77-7.49-1.77-7.49,0,0-1.04-40.32-4.46-46.47-.18-.32-3.81-6.5-4-6.63-3.86-2.5-35.7.95-35.7.95,0,0-1.82,5.29-1.9,5.84-.44,3.09-1.72,14.46.9,30.04h0Z" style="fill: #2f2e41;"/>
  <path d="M376,263.49c1.38-1.62,1.28-4.15-.22-5.65-.16-.16-.33-.3-.52-.43l3.03-13.82-6.41,2.53-1.9,12.74c-.98,1.95-.32,4.39,1.48,5.45,1.51.89,3.38.55,4.54-.83h0Z" style="fill: #9e616a;"/>
  <path d="M381.12,179.35s3.18-5.11,9.43-11.87c3.31-1.19,9.04-.5,11.03,0,9.19,13.12,9.77,12.24,12.16,19.57.62,1.9.93,3.73.66,5.22-1.11,5.96.66,36.08,1.03,37.68s2.94,3.58.37,3.58-41.55-1.59-40.82-2.78,6.14-51.39,6.14-51.39h0Z" style="fill: #e6e7e8;"/>
  <path d="M384.8,179.35h-3.68s-4.04,3.18-3.68,6.76-4.04,34.58-4.04,38.55-1.47,5.16-1.47,7.55.73,3.98,0,5.16-2.21,8.35-1.84,11.13c.22,1.85.22,3.72,0,5.57h6.62s6.62-24.24,8.09-25.44c1.28-1.05,2.08-2.64,2.21-4.37,0-1.19-.73-1.19,1.11-2.78s.73-8.74.73-8.74l2.57-7.15-6.62-26.23h0Z" style="fill: #e6e7e8;"/>
  <ellipse cx="392.36" cy="150.88" rx="10.65" ry="11.51" style="fill: #9e616a;"/>
  <path d="M384.9,172.45l-1-4.73c-.66-3.2-.1-6.55,1.55-9.3,1.53-2.61,1.63-5.92.24-8.63-1.16-2.28-3.16-3.64-5.35-3.64h-.27v-.29c0-4.13,2.97-7.04,5.74-7.21.1-.86.66-1.63,1.64-2.24,2.34-1.46,6.87-1.78,10.29.17.13-1.28.9-2.38,2-2.87.56-.21,1.17-.25,1.75-.11.05-1.04.44-2.02,1.11-2.76.95-.99,2.46-1.37,4.16-1.04,2.33.46,4.63,2.06,6.47,4.52,1.63,2.18,2.77,4.75,3.86,7.23,1.08,2.44,2.19,4.97,3.81,7.11,1.77,2.34,3.96,3.86,6.18,4.27,2.58.48,5.23-.67,6.44-2.79l.24-.42.22.43c1.36,2.71.8,6.42-1.33,8.84-1.91,2.16-4.91,3.27-8.01,2.95-2.63-.27-5.28-1.48-7.89-3.59-2.59-2.1-4.18-4.42-4.75-6.89-.16-.77-.27-1.54-.34-2.32-.18-1.64-.34-3.18-1.27-4.32-.84-1.02-2.13-1.47-3.28-1.8l-.22-.07c-.08.93-.54,1.78-1.26,2.31-.21.14-.44.23-.69.28,1.33,5.79.79,10.24-1.63,13.19-4.07,5-11.91,3.97-12.24,3.92l-.22-.03v-.24c-.04-.64-.12-1.28-.23-1.92-1.12,2.92-4.9,10.65-5.4,11.43l-.35.53h0Z" style="fill: #2f2e41;"/>
</svg>