<?xml version="1.0" encoding="UTF-8"?>
<svg id="_图层_1" data-name=" 图层 1" xmlns="http://www.w3.org/2000/svg" viewBox="0 0 670 442.3">
  <path d="M58,72h51.2c-16.5,0-30-13.4-30-30s13.5-30,30-30h525.8c16.6,0,30,13.4,30,30s-13.4,30-30,30h-40c16.6,0,30,13.4,30,30s-13.4,30-30,30h-26.5c-16.6,0-30,13.4-30,30s13.4,30,30,30h71.5c16.6,0,30,13.4,30,30s-13.4,30-30,30h-69v.3c-1.33-.2-2.67-.3-4-.3h-75c-16.6,0-30,13.4-30,30s13.4,30,30,30h75c1.33,0,2.67-.1,4-.3v.3h22c16.6,0,30,13.4,30,30s-13.4,30-30,30h-60c16.6,0,30,13.4,30,30s-13.4,30-30,30H75c-16.6,0-30-13.4-30-30s13.4-30,30-30h18c-16.6,0-30-13.4-30-30s13.4-30,30-30H30c-16.6,0-30-13.4-30-30s13.4-30,30-30h93c16.6,0,30-13.4,30-30s-13.4-30-30-30h-16c-16.6,0-30-13.4-30-30s13.4-30,30-30h-49c-16.6,0-30-13.4-30-30s13.4-30,30-30Z" style="fill: #ffc107; fill-rule: evenodd; isolation: isolate; opacity: .15;"/>
  <path d="M548.24,25.3c4.1,0,7.5-3.4,7.5-7.5s-3.4-7.5-7.5-7.5-7.5,3.4-7.5,7.5,3.4,7.5,7.5,7.5Z" style="fill: #9e9e9e; isolation: isolate;"/>
  <path d="M524.24,58.3c2.5,0,4.5-2,4.5-4.5s-2-4.5-4.5-4.5-4.5,2-4.5,4.5,2,4.5,4.5,4.5Z" style="fill: #9e9e9e; isolation: isolate;"/>
  <path d="M563.74,87.3c3.9,0,7-3.1,7-7s-3.1-7-7-7-7,3.1-7,7,3.1,7,7,7Z" style="fill: #9e9e9e; isolation: isolate;"/>
  <g>
    <path d="M232.74,3.5l9.8,17" style="fill: #9e9e9e; stroke: #9e9e9e; stroke-linecap: round; stroke-miterlimit: 10; stroke-width: 7px;"/>
    <path d="M246.24,7.1l-17.1,9.8" style="fill: #9e9e9e; stroke: #9e9e9e; stroke-linecap: round; stroke-miterlimit: 10; stroke-width: 7px;"/>
  </g>
  <g>
    <path d="M488.24,404.7l-19-10.9" style="fill: #9e9e9e; stroke: #9e9e9e; stroke-linecap: round; stroke-miterlimit: 10; stroke-width: 6px;"/>
    <path d="M473.24,408.8l11-19" style="fill: #9e9e9e; stroke: #9e9e9e; stroke-linecap: round; stroke-miterlimit: 10; stroke-width: 6px;"/>
  </g>
  <path d="M418.24,442.3c4.1,0,7.5-3.4,7.5-7.5s-3.4-7.5-7.5-7.5-7.5,3.4-7.5,7.5,3.4,7.5,7.5,7.5Z" style="fill: #9e9e9e; isolation: isolate;"/>
  <path d="M382.24,385.3c2.5,0,4.5-2,4.5-4.5s-2-4.5-4.5-4.5-4.5,2-4.5,4.5,2,4.5,4.5,4.5Z" style="fill: #9e9e9e; isolation: isolate;"/>
  <g>
    <path d="M596.74,244.9l-13.9,3.7" style="fill: #9e9e9e; stroke: #9e9e9e; stroke-linecap: round; stroke-miterlimit: 10; stroke-width: 6px;"/>
    <path d="M591.64,253.7l-3.7-13.9" style="fill: #9e9e9e; stroke: #9e9e9e; stroke-linecap: round; stroke-miterlimit: 10; stroke-width: 6px;"/>
  </g>
  <path d="M443.33,291.41l15.7,2.4c5.31-6.29,8.98-13.75,10.67-21.74-11.48,9.19-28.94,4.3-42.86,9.32-8.77,3.24-15.56,10.19-18.45,18.91l-7.67,8.07c14.06,5.44,29.85,4.59,43.21-2.32,3.68-1.95,7.1-4.35,10.17-7.14-5.5-3.38-10.77-7.49-10.77-7.49h0Z" style="fill: #f2f2f2;"/>
  <path d="M437.76,266.86l15.15-4.7c1.89-7.94,1.76-16.22-.37-24.11-6.09,13.23-23.94,16.47-34.11,27.03-6.38,6.72-9.28,15.91-7.89,24.97l-3.19,10.57c15.06-1.26,28.81-8.9,37.61-20.92,2.41-3.35,4.37-6.99,5.85-10.83-6.46-.63-13.05-2.01-13.05-2.01h0Z" style="fill: #f2f2f2;"/>
  <path d="M469.79,313.26c0,.33-.27.6-.61.6H120.41c-.34,0-.62-.27-.62-.6s.27-.6.62-.6h348.77c.34,0,.62.27.62.6h0Z" style="fill: #ccc;"/>
  <ellipse cx="264.31" cy="178.7" rx="111.37" ry="108.87" style="fill: #e6e6e6;"/>
  <path d="M360.14,178.7c.02,29.64-14.33,57.54-38.68,75.2-.8.59-1.62,1.16-2.44,1.72-32.89,22.35-76.52,22.35-109.41,0-.82-.56-1.64-1.13-2.44-1.72-42.49-30.86-51.33-89.55-19.77-131.08,5.59-7.35,12.25-13.86,19.77-19.32.8-.59,1.62-1.16,2.44-1.72,32.89-22.35,76.52-22.35,109.41,0,.82.56,1.64,1.13,2.44,1.72,24.35,17.66,38.7,45.56,38.68,75.2Z" style="fill: #fff;"/>
  <ellipse cx="264.31" cy="178.7" rx="87.54" ry="85.58" style="fill: #ffc107;"/>
  <path d="M264.54,93.36c-1.33,0-2.65.04-3.96.09,48.16,4.14,83.77,45.65,79.54,92.74-3.84,42.72-39.43,76.06-83.25,78,2.53.21,5.08.33,7.67.33,48.35,0,87.54-38.31,87.54-85.58s-39.19-85.58-87.54-85.58h0Z" style="isolation: isolate; opacity: .2;"/>
  <path d="M264.57,87.04c-1.57,0-2.84,1.25-2.85,2.79v12.15c0,1.54,1.27,2.79,2.85,2.79s2.85-1.25,2.85-2.79v-12.15c0-1.54-1.27-2.78-2.85-2.79Z" style="fill: #fff;"/>
  <path d="M321.46,103.5c-.8-.59-1.62-1.16-2.44-1.72-1-.07-1.97.39-2.54,1.21l-7,10.04c-.89,1.27-.55,3,.75,3.87s3.07.54,3.96-.73l7-10.04c.54-.77.64-1.76.27-2.63h0Z" style="fill: #fff;"/>
  <path d="M353.26,149.28c-.59-1.42-2.25-2.11-3.71-1.53h0l-11.52,4.57c-1.46.58-2.16,2.2-1.57,3.63.59,1.42,2.25,2.11,3.71,1.53h0l11.52-4.57c1.46-.58,2.15-2.21,1.56-3.63Z" style="fill: #fff;"/>
  <path d="M219.14,113.03l-7-10.04c-.57-.82-1.53-1.28-2.54-1.21-.82.56-1.64,1.13-2.44,1.72-.37.87-.26,1.85.27,2.63l7,10.04c.89,1.27,2.66,1.6,3.96.73s1.64-2.6.75-3.87Z" style="fill: #fff;"/>
  <path d="M190.6,152.33l-11.52-4.57c-1.46-.58-3.12.11-3.71,1.53s.11,3.05,1.56,3.63l11.52,4.57c1.46.58,3.12-.11,3.71-1.53s-.11-3.05-1.56-3.63h0Z" style="fill: #fff;"/>
  <path d="M264.57,252.63c-1.57,0-2.84,1.25-2.85,2.79v12.15c0,1.54,1.27,2.79,2.85,2.79s2.85-1.25,2.85-2.79v-12.15c0-1.54-1.27-2.78-2.85-2.79Z" style="fill: #fff;"/>
  <path d="M321.19,251.27l-7-10.04c-.89-1.27-2.66-1.6-3.96-.73s-1.64,2.6-.75,3.87l7,10.04c.57.82,1.53,1.28,2.54,1.21.82-.56,1.64-1.13,2.44-1.72.37-.87.26-1.85-.27-2.63h0Z" style="fill: #fff;"/>
  <path d="M351.7,204.48l-11.52-4.57c-1.46-.58-3.12.11-3.71,1.53s.11,3.05,1.56,3.63h0l11.52,4.57c1.46.58,3.12-.11,3.71-1.53.59-1.42-.11-3.05-1.57-3.63h0Z" style="fill: #fff;"/>
  <path d="M218.39,240.5c-1.3-.87-3.07-.54-3.96.73l-7,10.04c-.54.77-.64,1.76-.27,2.63.8.59,1.62,1.16,2.44,1.72,1,.07,1.97-.39,2.54-1.21l7-10.04c.89-1.27.55-3-.75-3.87h0Z" style="fill: #fff;"/>
  <path d="M192.16,201.44c-.59-1.42-2.25-2.11-3.71-1.53h0l-11.52,4.57c-1.46.58-2.16,2.2-1.56,3.63s2.25,2.11,3.71,1.53l11.52-4.57c1.46-.58,2.15-2.21,1.56-3.63h0Z" style="fill: #fff;"/>
  <path d="M268.27,177.32c.55,3.17-1.63,6.17-4.87,6.72l-50.56,8.41c-3.24.54-6.32-1.6-6.87-4.76s1.63-6.18,4.87-6.72l50.56-8.41c3.24-.54,6.31,1.6,6.87,4.76h0Z" style="fill: #3f3d56;"/>
  <path d="M321.48,232.07c-1.51,1.49-3.97,1.49-5.5.02l-54.42-52.78c-1.52-1.48-1.53-3.88-.02-5.37,1.51-1.49,3.97-1.5,5.5-.02l54.42,52.78c1.52,1.48,1.53,3.88.02,5.37Z" style="fill: #3f3d56;"/>
  <ellipse cx="264.31" cy="178.7" rx="6.73" ry="6.58" style="fill: #ccc;"/>
  <path d="M217.93,64.55c-10.33,15.88-26.11,26.43-45.56,33.35-1.62,1.18-3.91.86-5.12-.72h0c-10.57-13.79-8.18-33.5,5.77-44.03,14.06-10.6,34.25-8.06,45.1,5.68.09.11.17.22.26.33l.29.38c1.21,1.58.88,3.82-.74,5Z" style="fill: #e6e6e6;"/>
  <path d="M310.26,59.16c10.66-13.88,30.82-16.68,45.01-6.26.11.09.23.17.34.25,13.94,10.54,16.33,30.25,5.77,44.03h0c-1.21,1.58-3.5,1.9-5.12.72q-.72-.53,0,0c-18.06-6.76-32.86-18.45-45.56-33.35-1.62-1.18-1.95-3.42-.74-5l.29-.38h0Z" style="fill: #e6e6e6;"/>
  <path d="M305.72,273.02c-1.37.75-1.86,2.45-1.09,3.79l16.44,28.72c.77,1.34,2.51,1.82,3.88,1.06,1.37-.75,1.85-2.44,1.09-3.78l-16.44-28.72c-.77-1.34-2.5-1.82-3.88-1.07h0Z" style="fill: #e6e6e6;"/>
  <path d="M219.02,274.09l-16.44,28.72c-.77,1.34-.28,3.04,1.09,3.79,1.37.75,3.11.27,3.88-1.07l16.44-28.72c.77-1.34.28-3.04-1.09-3.79-1.37-.75-3.11-.27-3.88,1.07h0Z" style="fill: #e6e6e6;"/>
  <ellipse cx="324.4" cy="304.28" rx="8.81" ry="8.61" style="fill: #e6e6e6;"/>
  <ellipse cx="330.62" cy="84.01" rx="8.81" ry="8.61" style="fill: #e6e6e6;"/>
  <ellipse cx="263.8" cy="63.75" rx="8.81" ry="8.61" style="fill: #e6e6e6;"/>
  <ellipse cx="200.08" cy="82.99" rx="8.81" ry="8.61" style="fill: #e6e6e6;"/>
  <ellipse cx="205.78" cy="304.28" rx="8.81" ry="8.61" style="fill: #e6e6e6;"/>
  <path d="M317.49,227.23c1.31,2.01,4.04,2.6,6.09,1.31.22-.14.42-.29.62-.47l13.82,7.24-.74-7.93-13.01-5.66c-1.78-1.65-4.58-1.58-6.27.16-1.41,1.45-1.62,3.66-.51,5.34h0Z" style="fill: #ffb7b7;"/>
  <path d="M327.56,229.99l5.41-7.31,26.09,12.06,32.46-5.95c6.03-1.11,11.85,2.78,12.98,8.68.12.65.19,1.32.19,1.98h0c0,6-4.96,10.88-11.1,10.89l-37.2.07-28.83-20.42Z" style="fill: #3f3d56;"/>
  <polygon points="319.22 356.2 313.74 353.64 321.27 331.25 329.35 335.03 319.22 356.2" style="fill: #ffb7b7;"/>
  <path d="M355.95,352.59c-.4.24-.8.49-1.2.72-.8.48-1.61.95-2.42,1.42-.4.23-.82.47-1.22.69h0s-.03.01-.03.01h-.01s-.62.16-.62.16l-.89-2.3-.41-1.06-.58-1.5-1.06-2.74-5.59-14.44,8.7-2.1.33,1.3h0l.16.64,3.04,12.05.62,2.46.02.08.37,1.47.32,1.28.36,1.42.11.43h.01s0-.01,0-.01Z" style="fill: #ffb7b7;"/>
  <path d="M407.83,301.89c-.55.87-1.11,1.73-1.68,2.58-1.06,1.59-2.14,3.15-3.25,4.7h-.01c-.65.6-1.36,1.11-2.13,1.53-.03.03-.07.04-.1.06-.56.3-1.17.54-1.79.7-.22.06-.46.11-.68.17-.81.19-1.62.35-2.42.49-1.42.25-2.83.43-4.23.54-.11.01-.22.02-.34.03-5.76.42-11.37-.25-17.21-1.34-2.89-.54-5.84-1.17-8.89-1.84-1-.22-2-.44-3.01-.65-.08-.02-.16-.04-.24-.05-1.45-.31-2.92-.62-4.43-.92-1.9-.38-3.86-.75-5.89-1.1l.15,2.81c.12,2.16.58,4.28,1.36,6.3.87,2.49,1.56,4.45.1,8.55l-.7,1.98c.74,2,.47,4.21-.71,5.99l-.14.21,5.84,14.44.38.94h-12.9l-8.99-17.64-.43-.84v-.05l.93-33.9c.01-.3.04-.6.08-.9.33-2.74,1.78-5.25,4.01-6.94,2.14-1.64,4.86-2.36,7.56-2.02l3.08.39,6.29.8,4.43.56h.09s13.07,1.66,13.07,1.66l.94-3.74.17-.06,5.5-1.97,19.03-6.82.05-.02,1.25-.45.15.24c.05.07.09.14.13.21,1.24,2.17,2.24,4.45,3,6.82,1.28,3.87,2.34,7.8,3.16,11.79.04.17.07.33.1.47v.05c.02.07.03.11.04.12.44,1.79.13,3.96-.67,6.13h-.01,0Z" style="fill: #2f2e41;"/>
  <path d="M408.63,289.4c-.06-.25-.13-.51-.22-.75-.64-1.88-1.38-3.72-2.23-5.51-.95-2.05-2.09-4.24-3.44-6.61-.66-1.15-1.36-2.34-2.12-3.59-.38-.62-.77-1.26-1.18-1.9-.02-.03-.03-.06-.05-.09l-.12-.19-18.82,2.46-7.01.92-.42,3.41-.1.85h0l-.28,2.3h0l-.37,3.05h-.03l-10.4-1.32-10.72-1.36-5.76-.73c-2.69-.34-5.42.38-7.56,2.02-2.23,1.7-3.68,4.19-4.01,6.94-.04.27-.06.56-.07.84l-5.43,12.58c-3.25,7.52-5.32,15.49-6.14,23.62l-3.98,12.45.57.05,8.44.76,2.23.2,4.91-7.01c.56-.8,1.09-1.62,1.59-2.46.81-1.38,1.54-2.8,2.17-4.26l10.62-24.71c.82.14,1.63.27,2.44.39,3.72.59,7.29,1.07,10.72,1.44,11.14,1.22,20.78,1.31,29.36.28,2.41-.29,4.74-.66,6.99-1.13.82-.17,1.64-.35,2.44-.55.19-.05.37-.09.56-.13,3.38-.85,6.09-3.32,7.18-6.56.65-1.85.74-3.83.26-5.73v.02h0Z" style="fill: #2f2e41;"/>
  <path d="M320.97,352.54l-5.93-2.77-.93-.44-1.49,3.56-10.37,2.23c-1.33.28-2.17,1.56-1.88,2.87.17.77.73,1.41,1.47,1.71l10.13,4.04,3.22-2.83-.79,3.8,3.81,1.52,4.18-13.01-1.44-.68h0Z" style="fill: #2f2e41;"/>
  <polygon points="357.4 347.05 357.78 347.99 357.4 347.99 357.4 347.05" style="fill: #2f2e41;"/>
  <path d="M355.34,348.19l-6.21,2.1-.97.33,1.51,3.55-5.76,8.71c-.74,1.11-.41,2.6.73,3.33.68.43,1.53.51,2.28.2l10.11-4.1.25-4.22,2.17,3.24,3.81-1.54-6.39-12.12-1.51.51h0Z" style="fill: #2f2e41;"/>
  <path d="M407.08,295.09c-.37,0-.73-.09-1.06-.26l-32.77-16.74-.38-1.51-.71-4.8v-.05s3.13-14.05,3.13-14.05c-.06-.12-.18-.32-.31-.54-1.39-2.3-5.63-9.32,2.46-18.98l14.19-16.17,12.18-.51.14.17c6.61,8.12,8.64,18.93,5.39,28.81l-1.27,22.39,1.36,4.52c.8,2.66.66,5.5-.37,8.07l.31,7.32c.05,1.24-.93,2.27-2.2,2.32h-.09Z" style="fill: #3f3d56;"/>
  <path d="M378.65,313.56c2.1-1.21,2.79-3.85,1.55-5.9-.13-.22-.28-.43-.45-.62l7.88-13.25-8.13.45-6.24,12.51c-1.75,1.68-1.77,4.42-.06,6.13,1.43,1.43,3.69,1.71,5.44.68h0Z" style="fill: #ffb7b7;"/>
  <path d="M381.83,303.82l-7.28-5.54,13.23-25.07-4.96-31.92c-.92-5.93,3.25-11.48,9.33-12.38.67-.1,1.36-.14,2.04-.12h0c6.14.2,10.95,5.23,10.75,11.23l-1.22,36.35-21.88,27.46h0Z" style="fill: #3f3d56;"/>
  <path id="f4e08e8b-ef08-4d70-8ad3-b81af8a71ff9-226" d="M383.81,215.27v-11.78c0-8.72,7.22-15.79,16.14-15.8s16.16,7.06,16.16,15.78h0v.02c2.84,5.8,1.07,8.55,0,11.78,0,1.17-.97,2.12-2.17,2.12h-27.96c-1.2,0-2.17-.95-2.17-2.12Z" style="fill: #2f2e41;"/>
  <path d="M383.21,201.09c2.11-6.19,8.96-9.54,15.29-7.47s9.76,8.76,7.65,14.95-8.96,9.54-15.29,7.47c-6.33-2.06-9.76-8.76-7.65-14.95Z" style="fill: #ffb7b7;"/>
  <path d="M407.31,207.91c-.11-.02-.22-.04-.33-.06-1.89-.33-3.77-.65-5.65-.98l-.17-4.17-2.28,3.73c-5.2,1.69-10.05.73-14.63-1.37-1.51-.7-2.97-1.49-4.38-2.36.78-4.67,3.67-8.74,7.87-11.08.17-.1.34-.18.51-.26,0,0,0,0,0,0h0c.3-.14.6-.26.9-.38,4.79-1.83,10.24-.8,13.98,2.65,3.69,3.44,5.35,9.13,4.18,14.29h0Z" style="fill: #2f2e41;"/>
</svg>