<?xml version="1.0" standalone="no"?><!DOCTYPE svg PUBLIC "-//W3C//DTD SVG 1.1//EN" "http://www.w3.org/Graphics/SVG/1.1/DTD/svg11.dtd"><svg t="1755412370828" class="icon" viewBox="0 0 1024 1024" version="1.1" xmlns="http://www.w3.org/2000/svg" p-id="1635" xmlns:xlink="http://www.w3.org/1999/xlink"><path d="M830.592 876.096H193.44a45.504 45.504 0 0 0 0 91.008h637.152a45.504 45.504 0 0 0 0-91.008zM193.408 785.056h4.096l189.792-17.28a90.976 90.976 0 0 0 55.072-25.952l409.6-409.6a87.008 87.008 0 0 0 23.936-60.064c0-24.864-10.4-47.328-27.072-63.232l-0.032-0.032-124.704-124.704a90.624 90.624 0 0 0-62.304-24.672c-22.464 0-43.008 8.128-58.88 21.6l0.128-0.096-409.6 409.6a90.912 90.912 0 0 0-25.92 54.688l-0.032 0.384-19.584 189.792a45.344 45.344 0 0 0 13.184 36.384c8.224 8.16 19.552 13.184 32.064 13.184h0.288zM660.832 147.904l124.256 124.256-91.008 88.736-121.984-121.984z" p-id="1636"></path></svg>